<?xml version="1.0" encoding="utf-8"?>
<!-- Generator: Adobe Illustrator 15.1.0, SVG Export Plug-In . SVG Version: 6.00 Build 0)  -->
<!DOCTYPE svg PUBLIC "-//W3C//DTD SVG 1.1//EN" "http://www.w3.org/Graphics/SVG/1.1/DTD/svg11.dtd">
<svg version="1.1" id="Layer_1" xmlns="http://www.w3.org/2000/svg" xmlns:xlink="http://www.w3.org/1999/xlink" x="0px" y="0px"
	 width="262px" height="350px" viewBox="0 0 262 350" enable-background="new 0 0 262 350" xml:space="preserve">
<path fill="#FCC447" d="M198.166-63.149l14.728-14.723c-0.134-0.168-0.273-0.328-0.413-0.475c-4.672-4.822-6.632-5.573-13.26-5.425
	c0,0-4.521,0.83-6.929,2.333c-2.411,1.509-5.272-0.525-5.272-0.525s-5.047-3.012-11.221-1.206c0,0-12.205,3.617-10.246,21.694
	c0,0,2.861,17.172,12.653,21.69c0,0,3.163,1.358,5.274,0.455c2.105-0.905,8.137-4.144,15.44-0.075c0,0,5.497,1.278,8.513-3.314
	c0,0,2.582-3.107,4.579-6.583L198.166-63.149z"/>
<rect x="73" y="-50" fill="#F5F5F5" width="412" height="274"/>
<rect x="1" y="18" fill="#D7E7FB" width="611" height="453"/>
<rect x="-28" y="-4" fill="#00233D" width="650" height="275"/>
<path fill="#8DC73F" d="M619,300.233c0,6.574-2.389,11.767-6.586,11.767H7.341C3.142,312,0,306.808,0,300.233v-17.856
	C0,275.802,3.142,271,7.341,271h605.073c4.197,0,6.586,4.802,6.586,11.377V300.233z"/>
<circle fill="#023558" cx="49.783" cy="222.59" r="45.592"/>
<path fill="#012B4A" d="M4,163.819v109.99c20-10.569,32.785-31.233,32.785-54.995S24,174.39,4,163.819z"/>
<path fill="#012B4A" d="M110.482,271c-10.572-20-31.233-32.773-54.99-32.773C31.735,238.227,11.074,251,0.5,271H110.482z"/>
<rect x="-7" y="269" fill="#012B4A" width="617" height="5"/>
<circle fill="#FFC556" cx="134.181" cy="180.532" r="4.894"/>
<circle fill="#FFC556" cx="115.2" cy="149.094" r="4.894"/>
<circle fill="#FFC556" cx="149.604" cy="147.315" r="4.894"/>
<g>
	<path fill="#FCC447" d="M197.295,273.496c0,6.415-5.254,11.619-11.736,11.619H67.567c-6.48,0-11.734-5.204-11.734-11.619V97.906
		c0-6.417,5.254-11.62,11.734-11.62h117.991c6.482,0,11.736,5.203,11.736,11.62V273.496z"/>
	<path fill="#FFF3DE" d="M184.58,182.109c0,6.664-5.438,12.068-12.146,12.068H81.998c-6.709,0-12.15-5.404-12.15-12.068v-69.734
		c0-6.668,5.44-12.071,12.15-12.071h90.436c6.709,0,12.146,5.402,12.146,12.071V182.109z"/>
	<circle fill="#F4A019" cx="92.992" cy="143.98" r="6.193"/>
	<ellipse fill="#FCC447" cx="95.271" cy="144.633" rx="2.609" ry="2.445"/>
	<path fill="#F4A019" d="M164.373,145.283c0,3.423-2.772,6.196-6.193,6.196c-3.418,0-6.19-2.773-6.19-6.196
		c0-3.42,2.772-6.191,6.19-6.191C161.601,139.091,164.373,141.863,164.373,145.283z"/>
	<path fill="#FCC447" d="M159.484,145.287c0,1.35-1.167,2.442-2.607,2.442c-1.439,0-2.609-1.092-2.609-2.442
		c0-1.352,1.169-2.445,2.609-2.445C158.317,142.841,159.484,143.935,159.484,145.287z"/>
	<path fill="#F4A019" d="M124.934,205.585c0,1.608-1.689,2.913-3.771,2.913h-45.26c-2.083,0-3.772-1.305-3.772-2.913l0,0
		c0-1.608,1.689-2.913,3.772-2.913h45.26C123.245,202.672,124.934,203.977,124.934,205.585L124.934,205.585z"/>
	<path fill="#F4A019" d="M169.637,245.568c0,0,7.564,1.025,7.373,8.971C177.01,254.539,169.83,254.154,169.637,245.568z"/>
	<path fill="#F4A019" d="M180.613,265.5l7.516-7.514c-0.068-0.084-0.139-0.166-0.211-0.242c-2.383-2.46-3.385-2.844-6.767-2.769
		c0,0-2.308,0.425-3.536,1.19c-1.231,0.77-2.691-0.268-2.691-0.268s-2.574-1.537-5.727-0.614c0,0-6.226,1.845-5.229,11.07
		c0,0,1.461,8.764,6.459,11.068c0,0,1.614,0.692,2.692,0.231c1.073-0.46,4.151-2.114,7.88-0.038c0,0,2.804,0.653,4.342-1.69
		c0,0,1.316-1.586,2.338-3.358L180.613,265.5z"/>
	<path fill="none" stroke="#F9A715" stroke-width="2.3077" stroke-miterlimit="10" d="M112.295,152.298
		c0,0,14.231,12.284,29.616-0.407"/>
</g>
</svg>
