<?xml version="1.0" encoding="utf-8"?>
<!-- Generator: Adobe Illustrator 15.1.0, SVG Export Plug-In . SVG Version: 6.00 Build 0)  -->
<!DOCTYPE svg PUBLIC "-//W3C//DTD SVG 1.1//EN" "http://www.w3.org/Graphics/SVG/1.1/DTD/svg11.dtd">
<svg version="1.1" id="Layer_1" xmlns="http://www.w3.org/2000/svg" xmlns:xlink="http://www.w3.org/1999/xlink" x="0px" y="0px"
	 width="50px" height="50px" viewBox="0 0 50 50" enable-background="new 0 0 50 50" xml:space="preserve">
<circle fill="#FFFFFF" cx="24.865" cy="25" r="25"/>
<g>
	<g>
		<path fill="#FEC43C" stroke="#FEC43C" d="M36.059,18.332l4.377-8.906l-0.84-0.414l-4.25,8.643
			c-2.736-2.443-6.343-3.931-10.291-3.931c-3.906,0-7.478,1.456-10.203,3.853l-4.339-8.569L9.676,9.431l4.463,8.813
			c-2.811,2.802-4.553,6.676-4.553,10.949v5c0,2.966,7.084,5.47,15.469,5.47c8.384,0,15.468-2.504,15.468-5.47v-5
			C40.523,24.964,38.816,21.127,36.059,18.332z M25.055,14.662c8.013,0,14.531,6.519,14.531,14.531c0,0.979-1.562,2.125-4.078,2.994
			c-2.869,0.99-6.582,1.537-10.453,1.537c-3.872,0-7.584-0.547-10.454-1.537c-2.515-0.869-4.078-2.016-4.078-2.994
			C10.523,21.18,17.042,14.662,25.055,14.662z M35.508,37.188c-2.869,0.99-6.582,1.537-10.453,1.537
			c-3.872,0-7.584-0.547-10.454-1.537c-2.515-0.869-4.078-2.016-4.078-2.994v-3.159c2.19,2.092,7.961,3.629,14.531,3.629
			c6.57,0,12.34-1.537,14.531-3.629v3.159C39.586,35.172,38.023,36.318,35.508,37.188z"/>
		<path fill="#FEC43C" stroke="#FEC43C" d="M17.456,25.557c0.326,0,0.591-0.265,0.591-0.591c0-0.326-0.265-0.591-0.591-0.591
			s-0.591,0.266-0.591,0.591C16.865,25.292,17.13,25.557,17.456,25.557z"/>
		<path fill="#FEC43C" stroke="#FEC43C" d="M32.654,25.557c0.324,0,0.59-0.265,0.59-0.591c0-0.326-0.266-0.591-0.59-0.591
			c-0.326,0-0.592,0.266-0.592,0.591C32.062,25.292,32.328,25.557,32.654,25.557z"/>
	</g>
</g>
</svg>
