<?xml version="1.0" encoding="UTF-8" standalone="no"?><svg xmlns="http://www.w3.org/2000/svg" xmlns:xlink="http://www.w3.org/1999/xlink" clip-rule="evenodd" stroke-miterlimit="10" viewBox="0 0 1024 768"><desc>SVG generated by Keynote</desc><defs></defs><g transform="matrix(1.00, 0.00, -0.00, -1.00, 0.0, 768.0)"><path d="M 0.0 768.0 L 1024.0 768.0 L 1024.0 0.0 L 0.0 0.0 Z M 0.0 768.0 " fill="#FEFFFF"></path><g><clipPath id="clip0x7fa29b2a3170"><path d="M -37.4 774.0 L -37.4 47.2 L -37.4 -6.0 L 21.0 -6.0 L 1120.7 -6.0 L 1120.7 774.0 Z M -37.4 774.0 "></path></clipPath><g clip-path="url(#clip0x7fa29b2a3170)"><g><clipPath id="clip0x7fa29b2a3940"><path d="M -37.4 -6.0 L 1120.7 -6.0 L 1120.7 774.0 L -37.4 774.0 Z M -37.4 -6.0 "></path></clipPath><g clip-path="url(#clip0x7fa29b2a3940)"><path d="M -37.4 -6.0 C -27.7 -6.0 -17.9 -6.0 -8.2 -6.0 C -8.2 2.8 -3.1 15.5 2.0 28.2 C -12.8 24.4 -27.7 20.6 -37.4 20.6 C -37.4 11.7 -37.4 2.8 -37.4 -6.0 " fill="#132742"></path><path d="M -37.4 -6.0 C -27.7 -6.0 -17.9 -6.0 -8.2 -6.0 " fill="none" stroke="#13253F" stroke-width="2.00"></path><path d="M -8.2 -6.0 C -8.2 2.8 -3.1 15.5 2.0 28.2 " fill="none" stroke="#142945" stroke-width="2.00"></path><path d="M 2.0 28.2 C -12.8 24.4 -27.7 20.6 -37.4 20.6 " fill="none" stroke="#142945" stroke-width="2.00"></path><path d="M -37.4 20.6 C -37.4 11.7 -37.4 2.8 -37.4 -6.0 " fill="none" stroke="#13253F" stroke-width="2.00"></path><path d="M -37.4 20.6 C -27.7 20.6 -12.8 24.4 2.0 28.2 C 7.1 40.9 12.2 53.6 12.2 62.5 C -7.7 54.8 -27.7 47.2 -37.4 47.2 C -37.4 38.3 -37.4 29.5 -37.4 20.6 " fill="#152A47"></path><path d="M -37.4 20.6 C -27.7 20.6 -12.8 24.4 2.0 28.2 " fill="none" stroke="#142945" stroke-width="2.00"></path><path d="M 2.0 28.2 C 7.1 40.9 12.2 53.6 12.2 62.5 " fill="none" stroke="#18304E" stroke-width="2.00"></path><path d="M 12.2 62.5 C -7.7 54.8 -27.7 47.2 -37.4 47.2 " fill="none" stroke="#162C48" stroke-width="2.00"></path><path d="M -37.4 47.2 C -37.4 38.3 -37.4 29.5 -37.4 20.6 " fill="none" stroke="#13253F" stroke-width="2.00"></path><path d="M -8.2 -6.0 C 1.5 -6.0 11.3 -6.0 21.0 -6.0 C 21.0 2.8 31.2 19.3 41.3 35.8 C 31.6 35.8 16.8 32.0 2.0 28.2 C -3.1 15.5 -8.2 2.8 -8.2 -6.0 " fill="#152A47"></path><path d="M -8.2 -6.0 C 1.5 -6.0 11.3 -6.0 21.0 -6.0 " fill="none" stroke="#13253F" stroke-width="2.00"></path><path d="M 21.0 -6.0 C 21.0 2.8 31.2 19.3 41.3 35.8 " fill="none" stroke="#162C48" stroke-width="2.00"></path><path d="M 41.3 35.8 C 31.6 35.8 16.8 32.0 2.0 28.2 " fill="none" stroke="#18304E" stroke-width="2.00"></path><path d="M 2.0 28.2 C -3.1 15.5 -8.2 2.8 -8.2 -6.0 " fill="none" stroke="#142945" stroke-width="2.00"></path><path d="M 2.0 28.2 C 16.8 32.0 31.6 35.8 41.3 35.8 C 51.5 52.3 61.7 68.8 61.7 77.7 C 52.0 77.7 32.1 70.1 12.2 62.5 C 12.2 53.6 7.1 40.9 2.0 28.2 " fill="#193251"></path><path d="M 2.0 28.2 C 16.8 32.0 31.6 35.8 41.3 35.8 " fill="none" stroke="#18304E" stroke-width="2.00"></path><path d="M 41.3 35.8 C 51.5 52.3 61.7 68.8 61.7 77.7 " fill="none" stroke="#1A3553" stroke-width="2.00"></path><path d="M 61.7 77.7 C 52.0 77.7 32.1 70.1 12.2 62.5 " fill="none" stroke="#1A3553" stroke-width="2.00"></path><path d="M 12.2 62.5 C 12.2 53.6 7.1 40.9 2.0 28.2 " fill="none" stroke="#18304E" stroke-width="2.00"></path><path d="M 21.0 -6.0 C 204.3 -6.0 387.6 -6.0 570.8 -6.0 C 570.8 2.8 575.9 15.5 581.0 28.2 C 402.8 32.0 224.6 35.8 41.3 35.8 C 31.2 19.3 21.0 2.8 21.0 -6.0 " fill="#152A47"></path><path d="M 21.0 -6.0 C 204.3 -6.0 387.6 -6.0 570.8 -6.0 " fill="none" stroke="#13253F" stroke-width="2.00"></path><path d="M 570.8 -6.0 C 570.8 2.8 575.9 15.5 581.0 28.2 " fill="none" stroke="#142945" stroke-width="2.00"></path><path d="M 581.0 28.2 C 402.8 32.0 224.6 35.8 41.3 35.8 " fill="none" stroke="#18304E" stroke-width="2.00"></path><path d="M 41.3 35.8 C 31.2 19.3 21.0 2.8 21.0 -6.0 " fill="none" stroke="#162C48" stroke-width="2.00"></path><path d="M 41.3 35.8 C 224.6 35.8 402.8 32.0 581.0 28.2 C 586.1 40.9 591.2 53.6 591.2 62.5 C 418.1 70.1 245.0 77.7 61.7 77.7 C 61.7 68.8 51.5 52.3 41.3 35.8 " fill="#193251"></path><path d="M 41.3 35.8 C 224.6 35.8 402.8 32.0 581.0 28.2 " fill="none" stroke="#18304E" stroke-width="2.00"></path><path d="M 581.0 28.2 C 586.1 40.9 591.2 53.6 591.2 62.5 " fill="none" stroke="#18304E" stroke-width="2.00"></path><path d="M 591.2 62.5 C 418.1 70.1 245.0 77.7 61.7 77.7 " fill="none" stroke="#1A3553" stroke-width="2.00"></path><path d="M 61.7 77.7 C 61.7 68.8 51.5 52.3 41.3 35.8 " fill="none" stroke="#1A3553" stroke-width="2.00"></path><path d="M 570.8 -6.0 C 754.1 -6.0 937.4 -6.0 1120.7 -6.0 C 1120.7 2.8 1120.7 11.7 1120.7 20.6 C 937.4 20.6 759.2 24.4 581.0 28.2 C 575.9 15.5 570.8 2.8 570.8 -6.0 " fill="#132742"></path><path d="M 570.8 -6.0 C 754.1 -6.0 937.4 -6.0 1120.7 -6.0 " fill="none" stroke="#13253F" stroke-width="2.00"></path><path d="M 1120.7 -6.0 C 1120.7 2.8 1120.7 11.7 1120.7 20.6 " fill="none" stroke="#13253F" stroke-width="2.00"></path><path d="M 1120.7 20.6 C 937.4 20.6 759.2 24.4 581.0 28.2 " fill="none" stroke="#142945" stroke-width="2.00"></path><path d="M 581.0 28.2 C 575.9 15.5 570.8 2.8 570.8 -6.0 " fill="none" stroke="#142945" stroke-width="2.00"></path><path d="M 581.0 28.2 C 759.2 24.4 937.4 20.6 1120.7 20.6 C 1120.7 29.5 1120.7 38.3 1120.7 47.2 C 937.4 47.2 764.3 54.8 591.2 62.5 C 591.2 53.6 586.1 40.9 581.0 28.2 " fill="#152A47"></path><path d="M 581.0 28.2 C 759.2 24.4 937.4 20.6 1120.7 20.6 " fill="none" stroke="#142945" stroke-width="2.00"></path><path d="M 1120.7 20.6 C 1120.7 29.5 1120.7 38.3 1120.7 47.2 " fill="none" stroke="#13253F" stroke-width="2.00"></path><path d="M 1120.7 47.2 C 937.4 47.2 764.3 54.8 591.2 62.5 " fill="none" stroke="#162C48" stroke-width="2.00"></path><path d="M 591.2 62.5 C 591.2 53.6 586.1 40.9 581.0 28.2 " fill="none" stroke="#18304E" stroke-width="2.00"></path><path d="M -37.4 47.2 C -27.7 47.2 -7.7 54.8 12.2 62.5 C 12.2 183.6 7.1 300.9 2.0 418.2 C -12.8 414.4 -27.7 410.6 -37.4 410.6 C -37.4 289.5 -37.4 168.4 -37.4 47.2 " fill="#152A47"></path><path d="M -37.4 47.2 C -27.7 47.2 -7.7 54.8 12.2 62.5 " fill="none" stroke="#162C48" stroke-width="2.00"></path><path d="M 12.2 62.5 C 12.2 183.6 7.1 300.9 2.0 418.2 " fill="none" stroke="#18304E" stroke-width="2.00"></path><path d="M 2.0 418.2 C -12.8 414.4 -27.7 410.6 -37.4 410.6 " fill="none" stroke="#142945" stroke-width="2.00"></path><path d="M -37.4 410.6 C -37.4 289.5 -37.4 168.4 -37.4 47.2 " fill="none" stroke="#13253F" stroke-width="2.00"></path><path d="M -37.4 410.6 C -27.7 410.6 -12.8 414.4 2.0 418.2 C -3.1 535.6 -8.2 652.9 -8.2 774.0 C -17.9 774.0 -27.7 774.0 -37.4 774.0 C -37.4 652.9 -37.4 531.8 -37.4 410.6 " fill="#132742"></path><path d="M -37.4 410.6 C -27.7 410.6 -12.8 414.4 2.0 418.2 " fill="none" stroke="#142945" stroke-width="2.00"></path><path d="M 2.0 418.2 C -3.1 535.6 -8.2 652.9 -8.2 774.0 " fill="none" stroke="#142945" stroke-width="2.00"></path><path d="M -8.2 774.0 C -17.9 774.0 -27.7 774.0 -37.4 774.0 " fill="none" stroke="#13253F" stroke-width="2.00"></path><path d="M -37.4 774.0 C -37.4 652.9 -37.4 531.8 -37.4 410.6 " fill="none" stroke="#13253F" stroke-width="2.00"></path><path d="M 12.2 62.5 C 32.1 70.1 52.0 77.7 61.7 77.7 C 61.7 198.8 51.5 312.3 41.3 425.9 C 31.6 425.9 16.8 422.1 2.0 418.2 C 7.1 300.9 12.2 183.6 12.2 62.5 " fill="#193251"></path><path d="M 12.2 62.5 C 32.1 70.1 52.0 77.7 61.7 77.7 " fill="none" stroke="#1A3553" stroke-width="2.00"></path><path d="M 61.7 77.7 C 61.7 198.8 51.5 312.3 41.3 425.9 " fill="none" stroke="#1A3553" stroke-width="2.00"></path><path d="M 41.3 425.9 C 31.6 425.9 16.8 422.1 2.0 418.2 " fill="none" stroke="#18304E" stroke-width="2.00"></path><path d="M 2.0 418.2 C 7.1 300.9 12.2 183.6 12.2 62.5 " fill="none" stroke="#18304E" stroke-width="2.00"></path><path d="M 2.0 418.2 C 16.8 422.1 31.6 425.9 41.3 425.9 C 31.2 539.4 21.0 652.9 21.0 774.0 C 11.3 774.0 1.5 774.0 -8.2 774.0 C -8.2 652.9 -3.1 535.6 2.0 418.2 " fill="#152A47"></path><path d="M 2.0 418.2 C 16.8 422.1 31.6 425.9 41.3 425.9 " fill="none" stroke="#18304E" stroke-width="2.00"></path><path d="M 41.3 425.9 C 31.2 539.4 21.0 652.9 21.0 774.0 " fill="none" stroke="#162C48" stroke-width="2.00"></path><path d="M 21.0 774.0 C 11.3 774.0 1.5 774.0 -8.2 774.0 " fill="none" stroke="#13253F" stroke-width="2.00"></path><path d="M -8.2 774.0 C -8.2 652.9 -3.1 535.6 2.0 418.2 " fill="none" stroke="#142945" stroke-width="2.00"></path><path d="M 61.7 77.7 C 245.0 77.7 418.1 70.1 591.2 62.5 C 591.2 183.6 586.1 300.9 581.0 418.2 C 402.8 422.1 224.6 425.9 41.3 425.9 C 51.5 312.3 61.7 198.8 61.7 77.7 " fill="#193251"></path><path d="M 61.7 77.7 C 245.0 77.7 418.1 70.1 591.2 62.5 " fill="none" stroke="#1A3553" stroke-width="2.00"></path><path d="M 591.2 62.5 C 591.2 183.6 586.1 300.9 581.0 418.2 " fill="none" stroke="#18304E" stroke-width="2.00"></path><path d="M 581.0 418.2 C 402.8 422.1 224.6 425.9 41.3 425.9 " fill="none" stroke="#18304E" stroke-width="2.00"></path><path d="M 41.3 425.9 C 51.5 312.3 61.7 198.8 61.7 77.7 " fill="none" stroke="#1A3553" stroke-width="2.00"></path><path d="M 41.3 425.9 C 224.6 425.9 402.8 422.1 581.0 418.2 C 575.9 535.6 570.8 652.9 570.8 774.0 C 387.6 774.0 204.3 774.0 21.0 774.0 C 21.0 652.9 31.2 539.4 41.3 425.9 " fill="#152A47"></path><path d="M 41.3 425.9 C 224.6 425.9 402.8 422.1 581.0 418.2 " fill="none" stroke="#18304E" stroke-width="2.00"></path><path d="M 581.0 418.2 C 575.9 535.6 570.8 652.9 570.8 774.0 " fill="none" stroke="#142945" stroke-width="2.00"></path><path d="M 570.8 774.0 C 387.6 774.0 204.3 774.0 21.0 774.0 " fill="none" stroke="#13253F" stroke-width="2.00"></path><path d="M 21.0 774.0 C 21.0 652.9 31.2 539.4 41.3 425.9 " fill="none" stroke="#162C48" stroke-width="2.00"></path><path d="M 591.2 62.5 C 764.3 54.8 937.4 47.2 1120.7 47.2 C 1120.7 168.4 1120.7 289.5 1120.7 410.6 C 937.4 410.6 759.2 414.4 581.0 418.2 C 586.1 300.9 591.2 183.6 591.2 62.5 " fill="#152A47"></path><path d="M 591.2 62.5 C 764.3 54.8 937.4 47.2 1120.7 47.2 " fill="none" stroke="#162C48" stroke-width="2.00"></path><path d="M 1120.7 47.2 C 1120.7 168.4 1120.7 289.5 1120.7 410.6 " fill="none" stroke="#13253F" stroke-width="2.00"></path><path d="M 1120.7 410.6 C 937.4 410.6 759.2 414.4 581.0 418.2 " fill="none" stroke="#142945" stroke-width="2.00"></path><path d="M 581.0 418.2 C 586.1 300.9 591.2 183.6 591.2 62.5 " fill="none" stroke="#18304E" stroke-width="2.00"></path><path d="M 581.0 418.2 C 759.2 414.4 937.4 410.6 1120.7 410.6 C 1120.7 531.8 1120.7 652.9 1120.7 774.0 C 937.4 774.0 754.1 774.0 570.8 774.0 C 570.8 652.9 575.9 535.6 581.0 418.2 " fill="#132742"></path><path d="M 581.0 418.2 C 759.2 414.4 937.4 410.6 1120.7 410.6 " fill="none" stroke="#142945" stroke-width="2.00"></path><path d="M 1120.7 410.6 C 1120.7 531.8 1120.7 652.9 1120.7 774.0 " fill="none" stroke="#13253F" stroke-width="2.00"></path><path d="M 1120.7 774.0 C 937.4 774.0 754.1 774.0 570.8 774.0 " fill="none" stroke="#13253F" stroke-width="2.00"></path><path d="M 570.8 774.0 C 570.8 652.9 575.9 535.6 581.0 418.2 " fill="none" stroke="#142945" stroke-width="2.00"></path><image xlink:href="A8AB34FC2D6A1CA8E77CC287E4594D72.png" width="40.00" height="36.00" transform="matrix(1.00, 0.00, -0.00, -1.00, -38.0, 29.0)"></image><image xlink:href="330F56B23D4558A6E05A09F17F7D156B.png" width="51.00" height="43.00" transform="matrix(1.00, 0.00, -0.00, -1.00, -38.0, 63.0)"></image><image xlink:href="8A7DD6290EF29B37FBD97C064ABA1AA5.png" width="51.00" height="43.00" transform="matrix(1.00, 0.00, -0.00, -1.00, -9.0, 36.0)"></image><image xlink:href="FF7CABA3C8C401F2F6843B3DEB457642.png" width="61.00" height="50.00" transform="matrix(1.00, 0.00, -0.00, -1.00, 1.0, 78.0)"></image><image xlink:href="B2023E133AB3B948C6316735A3EA7BA8.png" width="562.00" height="43.00" transform="matrix(1.00, 0.00, -0.00, -1.00, 20.0, 36.0)"></image><image xlink:href="693FD69B68F182A99BF07DFE8A1A0703.png" width="551.00" height="50.00" transform="matrix(1.00, 0.00, -0.00, -1.00, 41.0, 78.0)"></image><image xlink:href="49AD2F0093D2A2D3B9BE062047747398.png" width="551.00" height="36.00" transform="matrix(1.00, 0.00, -0.00, -1.00, 570.0, 29.0)"></image><image xlink:href="91C61F70B018CC143BCA29F40083B92A.png" width="540.00" height="43.00" transform="matrix(1.00, 0.00, -0.00, -1.00, 581.0, 63.0)"></image><image xlink:href="0CD06AD2F9BDE80002AECE1AB3B1FB9C.png" width="51.00" height="372.00" transform="matrix(1.00, 0.00, -0.00, -1.00, -38.0, 419.0)"></image><image xlink:href="48300443DCAD9F1E1004A12C801B1886.png" width="40.00" height="365.00" transform="matrix(1.00, 0.00, -0.00, -1.00, -38.0, 775.0)"></image><image xlink:href="F80737D1FFDB73E12D3C106AA07C547E.png" width="61.00" height="364.00" transform="matrix(1.00, 0.00, -0.00, -1.00, 1.0, 426.0)"></image><image xlink:href="517056AE3A1E43DC72EEE4CB779C8BDA.png" width="51.00" height="357.00" transform="matrix(1.00, 0.00, -0.00, -1.00, -9.0, 775.0)"></image><image xlink:href="0732B5565E135BC2FCC8E6FF11C5EF81.png" width="551.00" height="364.00" transform="matrix(1.00, 0.00, -0.00, -1.00, 41.0, 426.0)"></image><image xlink:href="47719495B6580099A366778CDCA0A0C7.png" width="562.00" height="357.00" transform="matrix(1.00, 0.00, -0.00, -1.00, 20.0, 775.0)"></image><image xlink:href="7426F973674BC8EA99E19EF4AD12AB06.png" width="540.00" height="372.00" transform="matrix(1.00, 0.00, -0.00, -1.00, 581.0, 419.0)"></image><image xlink:href="9DED405B5ACFF738B5F056A142B78909.png" width="551.00" height="365.00" transform="matrix(1.00, 0.00, -0.00, -1.00, 570.0, 775.0)"></image></g></g></g></g><g><clipPath id="clip0x7fa29c8e63e0"><path d="M -37.4 774.0 L 1120.7 774.0 L 1120.7 -6.0 L -37.4 -6.0 Z M -37.4 774.0 "></path></clipPath><g clip-path="url(#clip0x7fa29c8e63e0)"><g><clipPath id="clip0x7fa29c8e7cd0"><path d="M -37.4 -6.0 L 1120.7 -6.0 L 1120.7 774.0 L -37.4 774.0 Z M -37.4 -6.0 "></path></clipPath><g clip-path="url(#clip0x7fa29c8e7cd0)"><path d="M 70.7 128.0 C 70.7 116.8 60.6 107.7 48.1 107.7 C 35.7 107.7 25.6 116.8 25.6 128.0 C 25.6 139.2 35.7 148.2 48.1 148.2 C 60.6 148.2 70.7 139.2 70.7 128.0 " fill="#FDC552"></path><path d="M 81.2 673.7 C 81.2 667.6 75.7 662.7 68.9 662.7 C 62.2 662.7 56.7 667.6 56.7 673.7 C 56.7 679.8 62.2 684.7 68.9 684.7 C 75.7 684.7 81.2 679.8 81.2 673.7 " fill="#FDC552"></path><path d="M 529.2 84.2 C 529.2 78.1 523.7 73.2 517.0 73.2 C 510.2 73.2 504.7 78.1 504.7 84.2 C 504.7 90.3 510.2 95.2 517.0 95.2 C 523.7 95.2 529.2 90.3 529.2 84.2 " fill="#FDC552"></path><path d="M 1020.4 93.9 C 1020.4 87.9 1015.0 82.9 1008.2 82.9 C 1001.4 82.9 996.0 87.9 996.0 93.9 C 996.0 100.0 1001.4 104.9 1008.2 104.9 C 1015.0 104.9 1020.4 100.0 1020.4 93.9 " fill="#FDC552"></path><path d="M 549.0 95.2 C 549.0 93.0 547.0 91.1 544.5 91.1 C 541.9 91.1 539.9 93.0 539.9 95.2 C 539.9 97.5 541.9 99.4 544.5 99.4 C 547.0 99.4 549.0 97.5 549.0 95.2 " fill="#FDC552"></path><path d="M 1004.9 65.7 C 1004.9 63.4 1002.9 61.6 1000.3 61.6 C 997.8 61.6 995.8 63.4 995.8 65.7 C 995.8 68.0 997.8 69.8 1000.3 69.8 C 1002.9 69.8 1004.9 68.0 1004.9 65.7 " fill="#FDC552"></path><path d="M 1053.6 243.5 C 1053.6 241.2 1051.6 239.3 1049.0 239.3 C 1046.5 239.3 1044.4 241.2 1044.4 243.5 C 1044.4 245.7 1046.5 247.6 1049.0 247.6 C 1051.6 247.6 1053.6 245.7 1053.6 243.5 " fill="#FDC552"></path><path d="M 75.1 649.7 C 75.1 647.4 73.1 645.6 70.5 645.6 C 68.0 645.6 65.9 647.4 65.9 649.7 C 65.9 652.0 68.0 653.8 70.5 653.8 C 73.1 653.8 75.1 652.0 75.1 649.7 " fill="#FDC552"></path><path d="M 324.8 615.8 C 324.8 613.6 322.8 611.7 320.3 611.7 C 317.7 611.7 315.7 613.6 315.7 615.8 C 315.7 618.1 317.7 620.0 320.3 620.0 C 322.8 620.0 324.8 618.1 324.8 615.8 " fill="#FDC552"></path><path d="M 65.4 396.9 C 65.4 394.7 63.3 392.8 60.8 392.8 C 58.3 392.8 56.2 394.7 56.2 396.9 C 56.2 399.2 58.3 401.1 60.8 401.1 C 63.3 401.1 65.4 399.2 65.4 396.9 " fill="#FDC552"></path><path d="M 287.1 105.2 C 287.1 102.9 285.1 101.1 282.6 101.1 C 280.0 101.1 278.0 102.9 278.0 105.2 C 278.0 107.5 280.0 109.3 282.6 109.3 C 285.1 109.3 287.1 107.5 287.1 105.2 " fill="#FDC552"></path><path d="M 746.2 700.7 C 746.2 698.5 744.2 696.6 741.6 696.6 C 739.1 696.6 737.0 698.5 737.0 700.7 C 737.0 703.0 739.1 704.9 741.6 704.9 C 744.2 704.9 746.2 703.0 746.2 700.7 " fill="#FDC552"></path><path d="M 865.1 37.5 C 865.1 35.2 863.1 33.4 860.6 33.4 C 858.0 33.4 856.0 35.2 856.0 37.5 C 856.0 39.8 858.0 41.6 860.6 41.6 C 863.1 41.6 865.1 39.8 865.1 37.5 " fill="#FDC552"></path><path d="M 946.8 622.9 C 946.8 620.6 944.8 618.8 942.2 618.8 C 939.7 618.8 937.6 620.6 937.6 622.9 C 937.6 625.2 939.7 627.0 942.2 627.0 C 944.8 627.0 946.8 625.2 946.8 622.9 " fill="#FDC552"></path><path d="M 1086.6 737.2 C 1086.6 734.9 1084.6 733.0 1082.0 733.0 C 1079.5 733.0 1077.4 734.9 1077.4 737.2 C 1077.4 739.4 1079.5 741.3 1082.0 741.3 C 1084.6 741.3 1086.6 739.4 1086.6 737.2 " fill="#FDC552"></path></g></g></g></g><text xml:space="preserve" font-family="GearedSlab-Regular,Geared Slab" font-size="150.0" fill="#FF7972" transform="matrix(1.00, 0.00, -0.00, -1.00, 441.6, 529.0)">T</text><text xml:space="preserve" font-family="GearedSlab-Regular,Geared Slab" font-size="150.0" fill="#FF7972" transform="matrix(1.00, 0.00, -0.00, -1.00, 512.4, 529.0)">F</text><text xml:space="preserve" font-family="GearedSlab-Regular,Geared Slab" font-size="150.0" fill="#FF7972" transform="matrix(1.00, 0.00, -0.00, -1.00, 571.0, 529.0)">E</text><g><clipPath id="clip0x7fa29c8f1400"><path d="M 452.8 487.6 L 619.2 487.6 L 619.2 280.4 L 452.8 280.4 Z M 452.8 487.6 "></path></clipPath><g clip-path="url(#clip0x7fa29c8f1400)"><g><clipPath id="clip0x7fa29c8f1be0"><path d="M 452.8 280.4 L 619.2 280.4 L 619.2 487.6 L 452.8 487.6 Z M 452.8 280.4 "></path></clipPath><g clip-path="url(#clip0x7fa29c8f1be0)"><path d="M 526.3 287.4 C 526.3 283.5 513.7 280.4 498.1 280.4 C 482.5 280.4 469.9 283.5 469.9 287.4 C 469.9 291.3 482.5 294.4 498.1 294.4 C 513.7 294.4 526.3 291.3 526.3 287.4 " fill="#5F73C3"></path><path d="M 602.1 286.9 C 602.1 283.3 589.6 280.4 574.2 280.4 C 558.8 280.4 546.3 283.3 546.3 286.9 C 546.3 290.4 558.8 293.3 574.2 293.3 C 589.6 293.3 602.1 290.4 602.1 286.9 " fill="#5F73C3"></path><path d="M 535.3 312.8 C 515.2 312.8 496.6 316.3 481.1 322.2 C 475.1 306.7 471.3 288.7 471.3 288.7 C 483.3 280.0 510.6 285.4 518.8 285.8 C 527.1 286.2 526.3 296.1 526.3 298.6 C 526.3 300.6 529.4 302.5 536.0 302.8 L 536.0 303.0 C 542.3 302.7 545.4 300.7 545.4 298.8 C 545.4 296.3 544.6 286.4 552.9 286.0 C 561.1 285.6 588.4 280.2 600.4 288.9 C 600.4 288.9 596.5 307.1 590.5 322.7 C 574.8 316.5 555.8 312.8 535.3 312.8 " fill="#7B91FF"></path><path d="M 583.5 338.2 L 565.4 367.8 L 535.7 367.9 L 535.7 367.7 L 501.7 367.5 L 486.6 333.9 L 486.8 334.9 C 484.7 331.3 482.8 326.9 481.0 322.4 C 496.5 316.5 515.1 313.1 535.2 313.1 C 555.8 313.1 574.9 316.7 590.6 322.8 C 588.6 328.1 586.3 333.0 583.9 336.8 C 583.2 337.8 583.2 338.1 583.5 338.2 " fill="#FEC43B"></path><path d="M 488.9 337.0 C 488.9 337.0 489.4 337.4 490.0 337.7 L 501.8 367.5 L 498.6 367.5 C 442.2 359.6 453.8 332.9 453.8 332.9 C 467.6 310.6 488.9 337.0 488.9 337.0 " fill="#FFDFD2"></path><path d="M 573.4 367.4 L 565.5 367.4 L 584.6 336.0 L 584.2 335.7 C 588.6 330.8 606.2 313.4 618.2 332.8 C 618.2 332.8 629.8 359.5 573.4 367.4 " fill="#FFDFD2"></path><path d="M 584.8 403.8 C 584.8 382.8 562.3 365.8 534.6 365.8 C 506.8 365.8 484.3 382.8 484.3 403.8 C 484.3 424.8 506.8 441.8 534.6 441.8 C 562.3 441.8 584.8 424.8 584.8 403.8 " fill="#FFDFD2"></path><path d="M 513.1 399.3 C 513.1 396.0 510.5 393.4 507.3 393.4 C 504.1 393.4 501.5 396.0 501.5 399.3 C 501.5 402.5 504.1 405.1 507.3 405.1 C 510.5 405.1 513.1 402.5 513.1 399.3 " fill="#000000"></path><path d="M 569.5 399.9 C 569.5 396.7 566.9 394.1 563.7 394.1 C 560.5 394.1 557.9 396.7 557.9 399.9 C 557.9 403.1 560.5 405.7 563.7 405.7 C 566.9 405.7 569.5 403.1 569.5 399.9 " fill="#000000"></path><path d="M 595.2 399.3 L 595.2 400.0 C 581.4 386.2 559.8 377.3 535.5 377.3 C 511.6 377.3 490.3 385.9 476.5 399.2 C 465.1 392.6 466.2 380.7 466.2 380.7 C 466.7 374.8 469.3 370.6 472.0 367.8 C 470.4 365.6 469.5 363.0 469.5 360.2 C 469.5 353.0 475.6 347.2 483.1 347.2 C 483.6 347.2 484.0 347.2 484.5 347.2 C 491.5 329.2 509.7 333.1 518.0 336.1 C 521.0 331.7 527.7 328.6 535.5 328.6 C 543.4 328.6 550.2 331.8 553.1 336.4 C 560.7 333.6 578.2 329.1 586.2 344.5 C 592.2 345.1 597.8 349.4 600.1 355.9 C 601.6 360.0 601.5 364.3 600.1 368.0 C 602.7 370.8 605.2 375.0 605.7 380.7 C 605.7 380.7 606.8 392.7 595.2 399.3 " fill="#FF665F"></path><path d="M 488.4 402.7 C 488.4 398.5 484.9 395.0 480.6 395.0 C 476.3 395.0 472.9 398.5 472.9 402.7 C 472.9 407.0 476.3 410.5 480.6 410.5 C 484.9 410.5 488.4 407.0 488.4 402.7 " fill="#FFDFD2"></path><path d="M 597.5 400.9 C 597.5 396.6 594.0 393.1 589.7 393.1 C 585.5 393.1 582.0 396.6 582.0 400.9 C 582.0 405.2 585.5 408.6 589.7 408.6 C 594.0 408.6 597.5 405.2 597.5 400.9 " fill="#FFDFD2"></path><path d="M 493.0 386.0 C 493.0 383.8 490.5 382.0 487.4 382.0 C 484.4 382.0 481.9 383.8 481.9 386.0 L 481.9 417.0 C 481.9 419.2 484.4 421.0 487.4 421.0 C 490.5 421.0 493.0 419.2 493.0 417.0 Z M 493.0 386.0 " fill="#FF665F"></path><path d="M 589.7 384.5 C 589.7 382.2 587.1 380.4 583.8 380.4 C 580.6 380.4 578.0 382.2 578.0 384.5 L 578.0 415.4 C 578.0 417.7 580.6 419.5 583.8 419.5 C 587.1 419.5 589.7 417.7 589.7 415.4 Z M 589.7 384.5 " fill="#FF665F"></path><path d="M 537.3 446.8 C 513.6 446.8 493.0 442.5 482.5 436.3 L 482.5 417.5 C 493.0 411.3 513.6 407.1 537.3 407.1 C 559.3 407.1 578.6 410.7 589.7 416.2 L 589.7 437.7 C 578.6 443.1 559.3 446.8 537.3 446.8 " fill="#FF665F"></path><path d="M 586.8 446.4 C 586.8 462.7 563.4 475.9 534.5 475.9 C 505.5 475.9 482.1 462.7 482.1 446.4 C 482.1 430.2 505.5 417.0 534.5 417.0 C 563.4 417.0 586.8 430.2 586.8 446.4 " fill="#FEC43B"></path><path d="M 491.4 463.2 C 491.4 463.2 479.0 451.7 478.3 438.1 C 477.7 424.4 494.5 433.7 494.5 433.7 Z M 491.4 463.2 " fill="#FEC43B"></path><path d="M 579.4 461.9 C 579.4 461.9 591.8 450.5 592.4 436.8 C 593.0 423.2 576.3 432.5 576.3 432.5 Z M 579.4 461.9 " fill="#FEC43B"></path><path d="M 545.3 476.5 C 545.3 470.3 540.1 465.3 533.7 465.3 C 527.3 465.3 522.1 470.3 522.1 476.5 C 522.1 482.6 527.3 487.6 533.7 487.6 C 540.1 487.6 545.3 482.6 545.3 476.5 " fill="#FBA700"></path><path d="M 597.1 424.1 C 597.1 420.0 593.5 416.7 589.0 416.7 L 482.4 416.7 C 478.0 416.7 474.3 420.0 474.3 424.1 L 474.3 430.9 C 474.3 435.1 478.0 438.4 482.4 438.4 L 589.0 438.4 C 593.5 438.4 597.1 435.1 597.1 430.9 Z M 597.1 424.1 " fill="#FBA700"></path><path d="M 572.8 385.3 C 569.6 383.6 562.1 383.8 552.6 390.5 C 543.7 396.9 537.0 389.5 536.4 388.7 C 536.0 389.1 529.3 397.2 520.0 390.6 C 510.6 383.8 503.1 383.6 499.8 385.4 C 496.6 387.1 498.0 384.4 498.0 384.4 C 499.3 378.2 506.8 373.2 506.8 373.2 C 518.2 367.7 535.1 372.6 536.3 373.0 L 536.3 372.9 C 536.3 372.9 554.0 367.4 565.8 373.1 C 565.8 373.1 573.3 378.1 574.7 384.4 C 574.7 384.4 576.0 387.1 572.8 385.3 " fill="#EB574B"></path><path d="M 473.2 325.8 C 473.2 325.8 472.4 325.9 471.6 326.9 C 470.7 328.1 470.1 329.7 471.1 331.3 C 472.9 334.2 470.9 342.0 464.5 340.5 C 458.1 339.1 467.6 328.2 469.3 327.9 C 470.0 327.7 470.1 326.9 470.6 326.1 C 471.2 325.2 470.5 325.2 470.5 325.2 Z M 473.2 325.8 " fill="#FCD1C2"></path><path d="M 594.9 399.6 L 594.9 399.7 C 594.6 399.3 594.2 399.0 593.9 398.7 C 594.2 399.0 594.6 399.3 594.9 399.6 " fill="#EB574B"></path><path d="M 538.3 331.0 C 530.5 331.0 523.8 334.1 520.8 338.6 C 512.5 335.6 494.3 331.7 487.3 349.7 C 486.8 349.7 486.4 349.6 485.9 349.6 C 478.4 349.6 472.3 355.5 472.3 362.7 C 472.3 365.5 473.2 368.1 474.8 370.2 C 472.1 373.1 469.5 377.3 469.0 383.2 C 469.0 383.2 468.2 391.1 474.2 397.6 C 464.9 390.8 465.9 380.4 465.9 380.4 C 466.4 374.5 469.0 370.3 471.7 367.4 C 470.1 365.3 469.2 362.7 469.2 359.9 C 469.2 352.7 475.3 346.8 482.8 346.8 C 483.3 346.8 483.7 346.9 484.2 346.9 C 491.2 328.9 509.4 332.8 517.7 335.8 C 520.7 331.3 527.4 328.2 535.2 328.2 C 542.4 328.2 548.7 330.9 551.9 334.9 C 548.5 332.5 543.6 331.0 538.3 331.0 " fill="#EB574B"></path><path d="M 589.0 347.0 C 588.5 346.1 588.0 345.2 587.4 344.4 C 590.8 345.1 594.0 347.0 596.4 349.8 C 594.2 348.2 591.6 347.2 589.0 347.0 " fill="#EB574B"></path><path d="M 555.9 338.8 C 555.2 337.8 554.4 336.8 553.3 335.9 C 560.1 333.4 574.2 330.0 582.8 339.7 C 574.0 333.4 561.9 336.6 555.9 338.8 " fill="#EB574B"></path></g></g></g></g><text xml:space="preserve" font-family="GearedSlab-Regular,Geared Slab" font-size="130.0" fill="#FCC447" transform="matrix(1.00, 0.00, -0.00, -1.00, 81.4, 132.0)">T</text><text xml:space="preserve" font-family="GearedSlab-Regular,Geared Slab" font-size="130.0" fill="#FCC447" transform="matrix(1.00, 0.00, -0.00, -1.00, 140.9, 132.0)">H</text><text xml:space="preserve" font-family="GearedSlab-Regular,Geared Slab" font-size="130.0" fill="#FCC447" transform="matrix(1.00, 0.00, -0.00, -1.00, 202.1, 132.0)">E</text><text xml:space="preserve" font-family="GearedSlab-Regular,Geared Slab" font-size="130.0" fill="#FCC447" transform="matrix(1.00, 0.00, -0.00, -1.00, 253.6, 132.0)"> </text><text xml:space="preserve" font-family="GearedSlab-Regular,Geared Slab" font-size="130.0" fill="#FCC447" transform="matrix(1.00, 0.00, -0.00, -1.00, 286.1, 132.0)">C</text><text xml:space="preserve" font-family="GearedSlab-Regular,Geared Slab" font-size="130.0" fill="#FCC447" transform="matrix(1.00, 0.00, -0.00, -1.00, 338.8, 132.0)">H</text><text xml:space="preserve" font-family="GearedSlab-Regular,Geared Slab" font-size="130.0" fill="#FCC447" transform="matrix(1.00, 0.00, -0.00, -1.00, 398.8, 132.0)">A</text><text xml:space="preserve" font-family="GearedSlab-Regular,Geared Slab" font-size="130.0" fill="#FCC447" transform="matrix(1.00, 0.00, -0.00, -1.00, 460.0, 132.0)">R</text><text xml:space="preserve" font-family="GearedSlab-Regular,Geared Slab" font-size="130.0" fill="#FCC447" transform="matrix(1.00, 0.00, -0.00, -1.00, 515.9, 132.0)">L</text><text xml:space="preserve" font-family="GearedSlab-Regular,Geared Slab" font-size="130.0" fill="#FCC447" transform="matrix(1.00, 0.00, -0.00, -1.00, 564.8, 132.0)">I</text><text xml:space="preserve" font-family="GearedSlab-Regular,Geared Slab" font-size="130.0" fill="#FCC447" transform="matrix(1.00, 0.00, -0.00, -1.00, 591.4, 132.0)">E</text><text xml:space="preserve" font-family="GearedSlab-Regular,Geared Slab" font-size="130.0" fill="#FCC447" transform="matrix(1.00, 0.00, -0.00, -1.00, 642.9, 132.0)"> </text><text xml:space="preserve" font-family="GearedSlab-Regular,Geared Slab" font-size="130.0" fill="#FCC447" transform="matrix(1.00, 0.00, -0.00, -1.00, 675.4, 132.0)">S</text><text xml:space="preserve" font-family="GearedSlab-Regular,Geared Slab" font-size="130.0" fill="#FCC447" transform="matrix(1.00, 0.00, -0.00, -1.00, 730.3, 132.0)">H</text><text xml:space="preserve" font-family="GearedSlab-Regular,Geared Slab" font-size="130.0" fill="#FCC447" transform="matrix(1.00, 0.00, -0.00, -1.00, 791.5, 132.0)">O</text><text xml:space="preserve" font-family="GearedSlab-Regular,Geared Slab" font-size="130.0" fill="#FCC447" transform="matrix(1.00, 0.00, -0.00, -1.00, 844.7, 132.0)">W</text></g></svg>