<?xml version="1.0" encoding="UTF-8" standalone="no"?><svg xmlns="http://www.w3.org/2000/svg" xmlns:xlink="http://www.w3.org/1999/xlink" clip-rule="evenodd" stroke-miterlimit="10" viewBox="0 0 1024 768"><desc>SVG generated by Keynote</desc><defs></defs><g transform="matrix(1.00, 0.00, -0.00, -1.00, 0.0, 768.0)"><path d="M 0.0 768.0 L 1024.0 768.0 L 1024.0 0.0 L 0.0 0.0 Z M 0.0 768.0 " fill="#FEFFFF"></path><text xml:space="preserve" font-family="GearedSlab-Regular,Geared Slab" font-size="130.0" fill="#FF6160" transform="matrix(1.00, 0.00, -0.00, -1.00, 244.5, 338.0)">R</text><text xml:space="preserve" font-family="GearedSlab-Regular,Geared Slab" font-size="130.0" fill="#FF6160" transform="matrix(1.00, 0.00, -0.00, -1.00, 300.4, 338.0)">E</text><text xml:space="preserve" font-family="GearedSlab-Regular,Geared Slab" font-size="130.0" fill="#FF6160" transform="matrix(1.00, 0.00, -0.00, -1.00, 351.8, 338.0)">F</text><text xml:space="preserve" font-family="GearedSlab-Regular,Geared Slab" font-size="130.0" fill="#FCC447" transform="matrix(1.00, 0.00, -0.00, -1.00, 402.7, 338.0)">É</text><text xml:space="preserve" font-family="GearedSlab-Regular,Geared Slab" font-size="130.0" fill="#FCC447" transform="matrix(1.00, 0.00, -0.00, -1.00, 452.2, 338.0)">R</text><text xml:space="preserve" font-family="GearedSlab-Regular,Geared Slab" font-size="130.0" fill="#FCC447" transform="matrix(1.00, 0.00, -0.00, -1.00, 508.1, 338.0)">E</text><text xml:space="preserve" font-family="GearedSlab-Regular,Geared Slab" font-size="130.0" fill="#FCC447" transform="matrix(1.00, 0.00, -0.00, -1.00, 559.6, 338.0)">N</text><text xml:space="preserve" font-family="GearedSlab-Regular,Geared Slab" font-size="130.0" fill="#FCC447" transform="matrix(1.00, 0.00, -0.00, -1.00, 619.1, 338.0)">C</text><text xml:space="preserve" font-family="GearedSlab-Regular,Geared Slab" font-size="130.0" fill="#FCC447" transform="matrix(1.00, 0.00, -0.00, -1.00, 673.2, 338.0)">E</text><text xml:space="preserve" font-family="GearedSlab-Regular,Geared Slab" font-size="130.0" fill="#FCC447" transform="matrix(1.00, 0.00, -0.00, -1.00, 724.7, 338.0)">S</text></g></svg>