<?xml version="1.0" encoding="utf-8"?>
<!-- Generator: Adobe Illustrator 15.1.0, SVG Export Plug-In . SVG Version: 6.00 Build 0)  -->
<!DOCTYPE svg PUBLIC "-//W3C//DTD SVG 1.1//EN" "http://www.w3.org/Graphics/SVG/1.1/DTD/svg11.dtd">
<svg version="1.1" id="Layer_1" xmlns="http://www.w3.org/2000/svg" xmlns:xlink="http://www.w3.org/1999/xlink" x="0px" y="0px"
	 width="182px" height="255.983px" viewBox="0 0 182 255.983" enable-background="new 0 0 182 255.983" xml:space="preserve">
<g>
	<path fill="#FCC447" d="M161,213.217c0,7.286-5.963,13.191-13.322,13.191H13.721c-7.356,0-13.321-5.907-13.321-13.191V13.871
		C0.4,6.585,6.364,0.68,13.721,0.68h133.957C155.037,0.68,161,6.586,161,13.871V213.217z"/>
	<path fill="#FFF3DE" d="M146.567,109.468c0,7.564-6.174,13.702-13.791,13.702H30.104c-7.616,0-13.792-6.138-13.792-13.702v-79.17
		c0-7.568,6.177-13.705,13.792-13.705h102.672c7.617,0,13.791,6.136,13.791,13.705V109.468z"/>
	<path fill="#F4A019" d="M78.85,136.119c0,1.826-1.917,3.308-4.283,3.308H23.184c-2.365,0-4.282-1.482-4.282-3.308l0,0
		c0-1.828,1.917-3.308,4.282-3.308h51.384C76.933,132.812,78.85,134.292,78.85,136.119L78.85,136.119z"/>
	<path fill="#F4A019" d="M129.603,181.512c0,0,8.585,1.165,8.367,10.186C137.97,191.697,129.821,191.26,129.603,181.512z"/>
	<path fill="#F4A019" d="M142.062,204.141l8.533-8.531c-0.077-0.097-0.156-0.189-0.239-0.274c-2.706-2.794-3.842-3.229-7.682-3.143
		c0,0-2.618,0.48-4.015,1.352c-1.396,0.874-3.055-0.304-3.055-0.304s-2.923-1.745-6.501-0.699c0,0-7.069,2.097-5.935,12.57
		c0,0,1.659,9.948,7.331,12.566c0,0,1.833,0.786,3.057,0.263c1.219-0.524,4.714-2.4,8.944-0.043c0,0,3.187,0.74,4.932-1.92
		c0,0,1.496-1.801,2.652-3.813L142.062,204.141z"/>
</g>
</svg>
