<?xml version="1.0" encoding="utf-8"?>
<!-- Generator: Adobe Illustrator 15.1.0, SVG Export Plug-In . SVG Version: 6.00 Build 0)  -->
<!DOCTYPE svg PUBLIC "-//W3C//DTD SVG 1.1//EN" "http://www.w3.org/Graphics/SVG/1.1/DTD/svg11.dtd">
<svg version="1.1" id="Layer_1" xmlns="http://www.w3.org/2000/svg" xmlns:xlink="http://www.w3.org/1999/xlink" x="0px" y="0px"
	 width="50px" height="50px" viewBox="0 0 50 50" enable-background="new 0 0 50 50" xml:space="preserve">
<circle fill="#FFFFFF" cx="24.865" cy="25" r="25"/>
<g>
	<path fill="#FEC43C" stroke="#FEC43C" d="M21.677,44.038c-1.27,0-2.451-0.372-3.514-1.106c-2.014-1.391-7.818-7.305-8.715-14.052
		c-0.457-3.437,0.438-6.511,2.66-9.138c0.168-0.175,3.436-3.447,7.345-3.039c1.736,0.181,2.318,0.422,2.786,0.615
		c0.443,0.182,0.793,0.327,2.688,0.333c1.892-0.006,2.24-0.151,2.683-0.333c0.469-0.193,1.051-0.434,2.785-0.615
		c3.901-0.411,7.18,2.866,7.308,2.998c2.26,2.669,3.153,5.743,2.696,9.18c-0.896,6.748-6.703,12.66-8.717,14.051
		c-1.062,0.734-2.242,1.106-3.512,1.106l0,0c-1.402,0-2.577-0.456-3.246-0.787C24.255,43.582,23.083,44.038,21.677,44.038z
		 M18.769,18.195c-2.977,0-5.507,2.548-5.533,2.574c-1.894,2.243-2.671,4.918-2.275,7.909c0.819,6.159,6.279,11.762,8.068,12.997
		c0.803,0.556,1.693,0.836,2.647,0.836c1.404,0,2.544-0.604,2.861-0.788c0.237-0.139,0.531-0.14,0.769,0
		c0.318,0.185,1.463,0.788,2.862,0.788l0,0c0.952,0,1.842-0.28,2.645-0.836c1.791-1.235,7.25-6.835,8.07-12.995
		c0.396-2.992-0.379-5.667-2.312-7.953l0,0c-0.002,0-2.844-2.844-6.02-2.507c-1.517,0.159-1.966,0.343-2.361,0.507
		c-0.666,0.275-1.219,0.443-3.266,0.449c-2.053-0.007-2.604-0.175-3.271-0.449c-0.396-0.164-0.845-0.35-2.361-0.507
		C19.117,18.203,18.942,18.195,18.769,18.195z"/>
	<path fill="#FEC43C" stroke="#FEC43C" d="M24.924,18.737c-0.037,0-0.074-0.002-0.112-0.008c-0.417-0.062-0.705-0.449-0.645-0.866
		c0.804-5.483-3.004-9.119-3.042-9.156c-0.308-0.288-0.325-0.771-0.038-1.079c0.287-0.309,0.769-0.328,1.078-0.04
		c0.182,0.169,4.437,4.198,3.515,10.495C25.623,18.463,25.296,18.737,24.924,18.737z"/>
	<path fill="#FEC43C" stroke="#FEC43C" d="M29.132,16.233c-1.381,0-2.862-0.362-4.406-1.075c-0.255-0.118-0.424-0.365-0.442-0.645
		c-0.005-0.091-0.123-2.243,1.575-4.053c2.035-2.169,5.72-2.872,10.854-2.049c0.371,0.06,0.643,0.379,0.643,0.754
		C37.354,9.65,35.064,16.233,29.132,16.233z M25.833,13.977c1.167,0.484,2.274,0.73,3.297,0.73c3.724,0,5.675-3.319,6.396-4.921
		c-4.096-0.516-7.01,0.076-8.553,1.721C26.139,12.397,25.9,13.412,25.833,13.977z"/>
</g>
</svg>
