<?xml version="1.0" encoding="utf-8"?>
<!-- Generator: Adobe Illustrator 15.1.0, SVG Export Plug-In . SVG Version: 6.00 Build 0)  -->
<!DOCTYPE svg PUBLIC "-//W3C//DTD SVG 1.1//EN" "http://www.w3.org/Graphics/SVG/1.1/DTD/svg11.dtd">
<svg version="1.1" id="Layer_1" xmlns="http://www.w3.org/2000/svg" xmlns:xlink="http://www.w3.org/1999/xlink" x="0px" y="0px"
	 width="332.5px" height="202.343px" viewBox="167.5 0 332.5 202.343" enable-background="new 167.5 0 332.5 202.343"
	 xml:space="preserve">
<path fill="#D7E7FB" d="M487.887,192.684c0,2.215-13.93,4.01-31.115,4.01H225.139c-17.183,0-31.116-1.795-31.116-4.01v-23.168
	c0-2.217,13.934-4.012,31.116-4.012h231.632c17.186,0,31.115,1.795,31.115,4.012V192.684z"/>
<rect x="178.955" y="165.395" fill="#A0C5EA" width="306.901" height="29.322"/>
<rect x="323.609" y="180.382" fill="#D7E7FB" width="18.896" height="16.941"/>
<path fill="#935227" d="M349.021,115.195c0-0.079-0.527,0.028-0.559,0.028h-2.699c-0.031,0,0.65-0.107,0.65-0.028v0.036
	c0,0.079-0.682-0.007-0.65-0.007h2.699c0.031,0,0.559,0.086,0.559,0.007V115.195z"/>
<circle fill="#FAD836" cx="417.311" cy="74.38" r="10.983"/>
<circle fill="#FAD836" cx="400.625" cy="60.91" r="5.076"/>
<g>
	<path fill="#306D23" d="M277.718,83.695c0,3.703-3.146,6.704-7.022,6.704c-3.881,0-7.022-3.001-7.022-6.704
		c0-3.7,3.142-6.705,7.022-6.705C274.572,76.99,277.718,79.995,277.718,83.695z"/>
	<path fill="#306D23" d="M250.96,151.707c0,3.702-3.145,6.705-7.021,6.705c-3.881,0-7.025-3.003-7.025-6.705
		s3.145-6.703,7.025-6.703C247.816,145.004,250.96,148.006,250.96,151.707z"/>
	<ellipse fill="#306D23" cx="248.469" cy="139.597" rx="7.024" ry="6.706"/>
	<path fill="#306D23" d="M259.725,127.198c0,3.703-3.145,6.705-7.026,6.705c-3.877,0-7.023-3.002-7.023-6.705
		c0-3.702,3.146-6.707,7.023-6.707C256.58,120.49,259.725,123.496,259.725,127.198z"/>
	<ellipse fill="#306D23" cx="256.324" cy="115.085" rx="7.023" ry="6.704"/>
	<path fill="#306D23" d="M267.274,102.684c0,3.703-3.146,6.704-7.024,6.704s-7.023-3.001-7.023-6.704
		c0-3.699,3.145-6.703,7.023-6.703C264.129,95.982,267.274,98.985,267.274,102.684z"/>
	<ellipse fill="#306D23" cx="264.782" cy="90.284" rx="7.023" ry="6.706"/>
	<polygon fill="#3F8930" points="269.896,79.858 297.901,158.228 244.498,158.228 	"/>
	<path fill="#3F8930" d="M277.92,84.405c0,3.646-2.955,6.606-6.602,6.606c-3.647,0-6.605-2.959-6.605-6.606
		c0-3.646,2.958-6.602,6.605-6.602C274.965,77.803,277.92,80.759,277.92,84.405z"/>
	<circle fill="#3F8930" cx="246.159" cy="151.403" r="6.604"/>
	<path fill="#3F8930" d="M257.022,139.473c0,3.647-2.956,6.602-6.605,6.602c-3.644,0-6.603-2.955-6.603-6.602
		s2.959-6.605,6.603-6.605C254.066,132.867,257.022,135.826,257.022,139.473z"/>
	<path fill="#3F8930" d="M261.001,127.256c0,3.65-2.96,6.606-6.606,6.606s-6.602-2.956-6.602-6.606c0-3.646,2.955-6.604,6.602-6.604
		S261.001,123.611,261.001,127.256z"/>
	<path fill="#3F8930" d="M264.41,115.326c0,3.649-2.959,6.604-6.606,6.604c-3.646,0-6.602-2.955-6.602-6.604
		c0-3.648,2.955-6.604,6.602-6.604C261.451,108.722,264.41,111.679,264.41,115.326z"/>
	<path fill="#3F8930" d="M268.102,103.111c0,3.647-2.957,6.604-6.605,6.604c-3.647,0-6.604-2.957-6.604-6.604
		c0-3.646,2.957-6.601,6.604-6.601C265.145,96.51,268.102,99.464,268.102,103.111z"/>
	<path fill="#3F8930" d="M272.361,90.898c0,3.648-2.955,6.603-6.602,6.603c-3.648,0-6.606-2.955-6.606-6.603
		c0-3.645,2.958-6.607,6.606-6.607C269.406,84.291,272.361,87.253,272.361,90.898z"/>
	<path fill="#3F8930" d="M289.265,151.686c0,3.647,2.955,6.605,6.603,6.605c3.65,0,6.604-2.958,6.604-6.605
		c0-3.646-2.955-6.603-6.604-6.603C292.221,145.084,289.265,148.04,289.265,151.686z"/>
	<circle fill="#3F8930" cx="291.607" cy="139.756" r="6.604"/>
	<path fill="#3F8930" d="M281.026,127.541c0,3.646,2.957,6.604,6.604,6.604c3.648,0,6.604-2.959,6.604-6.604
		c0-3.645-2.955-6.602-6.604-6.602C283.983,120.939,281.026,123.896,281.026,127.541z"/>
	<path fill="#3F8930" d="M277.617,115.613c0,3.646,2.957,6.601,6.604,6.601c3.65,0,6.604-2.955,6.604-6.601
		c0-3.651-2.955-6.607-6.604-6.607C280.574,109.005,277.617,111.961,277.617,115.613z"/>
	<circle fill="#3F8930" cx="280.528" cy="103.396" r="6.604"/>
	<path fill="#3F8930" d="M269.662,91.181c0,3.646,2.959,6.605,6.606,6.605s6.603-2.959,6.603-6.605c0-3.647-2.955-6.604-6.603-6.604
		S269.662,87.533,269.662,91.181z"/>
</g>
<g>
	<ellipse fill="#306D23" cx="299.976" cy="112.901" rx="4.278" ry="4.084"/>
	<path fill="#306D23" d="M287.955,154.329c0,2.255-1.916,4.084-4.276,4.084c-2.364,0-4.28-1.829-4.28-4.084
		c0-2.254,1.916-4.083,4.28-4.083C286.039,150.246,287.955,152.074,287.955,154.329z"/>
	<ellipse fill="#306D23" cx="286.438" cy="146.951" rx="4.278" ry="4.084"/>
	<ellipse fill="#306D23" cx="289.014" cy="139.399" rx="4.279" ry="4.085"/>
	<ellipse fill="#306D23" cx="291.223" cy="132.021" rx="4.277" ry="4.083"/>
	<path fill="#306D23" d="M297.893,124.468c0,2.255-1.916,4.084-4.279,4.084s-4.278-1.828-4.278-4.084
		c0-2.253,1.915-4.083,4.278-4.083S297.893,122.214,297.893,124.468z"/>
	<ellipse fill="#306D23" cx="296.373" cy="116.915" rx="4.278" ry="4.085"/>
	<polygon fill="#3F8930" points="299.488,110.492 316.548,158.228 284.018,158.228 	"/>
	<path fill="#3F8930" d="M304.377,113.334c0,2.221-1.801,4.024-4.021,4.024c-2.223,0-4.023-1.803-4.023-4.024
		c0-2.221,1.801-4.021,4.023-4.021C302.576,109.313,304.377,111.113,304.377,113.334z"/>
	<circle fill="#3F8930" cx="285.029" cy="154.143" r="4.022"/>
	<path fill="#3F8930" d="M291.646,146.876c0,2.222-1.8,4.021-4.022,4.021c-2.22,0-4.022-1.799-4.022-4.021
		c0-2.221,1.803-4.024,4.022-4.024C289.847,142.852,291.646,144.655,291.646,146.876z"/>
	<circle fill="#3F8930" cx="290.049" cy="139.436" r="4.022"/>
	<circle fill="#3F8930" cx="292.125" cy="132.168" r="4.022"/>
	<circle fill="#3F8930" cx="294.373" cy="124.727" r="4.023"/>
	<circle fill="#3F8930" cx="296.968" cy="117.288" r="4.022"/>
	<circle fill="#3F8930" cx="315.309" cy="154.316" r="4.022"/>
	<circle fill="#3F8930" cx="312.713" cy="147.049" r="4.022"/>
	<circle fill="#3F8930" cx="310.291" cy="139.609" r="4.022"/>
	<path fill="#3F8930" d="M304.191,132.342c0,2.222,1.801,4.021,4.023,4.021s4.021-1.799,4.021-4.021
		c0-2.224-1.799-4.024-4.021-4.024C305.992,128.319,304.191,130.119,304.191,132.342z"/>
	<circle fill="#3F8930" cx="305.965" cy="124.901" r="4.022"/>
	<circle fill="#3F8930" cx="303.369" cy="117.461" r="4.023"/>
</g>
<g>
	<path fill="#306D23" d="M372.592,96.428c0,3.073-2.609,5.562-5.824,5.562c-3.219,0-5.826-2.489-5.826-5.562
		c0-3.068,2.607-5.561,5.826-5.561C369.982,90.867,372.592,93.36,372.592,96.428z"/>
	<path fill="#306D23" d="M350.395,152.851c0,3.07-2.607,5.562-5.824,5.562c-3.221,0-5.827-2.491-5.827-5.562
		c0-3.071,2.606-5.561,5.827-5.561C347.787,147.29,350.395,149.78,350.395,152.851z"/>
	<ellipse fill="#306D23" cx="348.328" cy="142.803" rx="5.828" ry="5.563"/>
	<path fill="#306D23" d="M357.666,132.517c0,3.072-2.609,5.563-5.828,5.563c-3.217,0-5.826-2.492-5.826-5.563
		c0-3.07,2.609-5.563,5.826-5.563C355.057,126.954,357.666,129.447,357.666,132.517z"/>
	<path fill="#306D23" d="M360.672,122.469c0,3.07-2.607,5.562-5.826,5.562c-3.218,0-5.826-2.492-5.826-5.562
		c0-3.072,2.608-5.561,5.826-5.561C358.064,116.908,360.672,119.397,360.672,122.469z"/>
	<path fill="#306D23" d="M363.93,112.182c0,3.072-2.609,5.562-5.827,5.562s-5.826-2.49-5.826-5.562c0-3.069,2.608-5.561,5.826-5.561
		S363.93,109.113,363.93,112.182z"/>
	<ellipse fill="#306D23" cx="361.861" cy="101.895" rx="5.826" ry="5.562"/>
	<polygon fill="#3F8930" points="366.104,93.215 389.336,158.228 345.035,158.228 	"/>
	<circle fill="#3F8930" cx="367.282" cy="97.018" r="5.478"/>
	<circle fill="#3F8930" cx="346.412" cy="152.597" r="5.478"/>
	<path fill="#3F8930" d="M355.424,142.701c0,3.026-2.453,5.476-5.479,5.476c-3.022,0-5.478-2.451-5.478-5.476
		c0-3.026,2.455-5.481,5.478-5.481C352.971,137.22,355.424,139.676,355.424,142.701z"/>
	<path fill="#3F8930" d="M358.725,132.567c0,3.028-2.455,5.48-5.479,5.48c-3.026,0-5.476-2.452-5.476-5.48
		c0-3.025,2.45-5.479,5.476-5.479C356.27,127.088,358.725,129.542,358.725,132.567z"/>
	<path fill="#3F8930" d="M361.552,122.669c0,3.028-2.454,5.479-5.479,5.479s-5.477-2.451-5.477-5.479
		c0-3.026,2.452-5.478,5.477-5.478C359.098,117.191,361.552,119.644,361.552,122.669z"/>
	<circle fill="#3F8930" cx="359.137" cy="112.536" r="5.479"/>
	<path fill="#3F8930" d="M368.148,102.405c0,3.027-2.451,5.477-5.477,5.477c-3.027,0-5.48-2.451-5.48-5.477
		c0-3.023,2.453-5.481,5.48-5.481C365.697,96.923,368.148,99.381,368.148,102.405z"/>
	<path fill="#3F8930" d="M382.172,152.834c0,3.024,2.451,5.478,5.479,5.478c3.026,0,5.479-2.453,5.479-5.478
		c0-3.026-2.452-5.478-5.479-5.478C384.623,147.356,382.172,149.808,382.172,152.834z"/>
	<circle fill="#3F8930" cx="384.115" cy="142.936" r="5.479"/>
	<circle fill="#3F8930" cx="380.815" cy="132.803" r="5.478"/>
	<path fill="#3F8930" d="M372.51,122.906c0,3.026,2.451,5.477,5.478,5.477s5.479-2.451,5.479-5.477c0-3.027-2.453-5.48-5.479-5.48
		S372.51,119.879,372.51,122.906z"/>
	<circle fill="#3F8930" cx="374.926" cy="112.773" r="5.478"/>
	<path fill="#3F8930" d="M365.91,102.638c0,3.026,2.455,5.481,5.479,5.481c3.026,0,5.479-2.456,5.479-5.481
		c0-3.024-2.454-5.476-5.479-5.476C368.365,97.162,365.91,99.614,365.91,102.638z"/>
</g>
<g>
	<path fill="#306D23" d="M410.357,96.428c0,3.073-2.611,5.562-5.826,5.562c-3.218,0-5.824-2.489-5.824-5.562
		c0-3.068,2.606-5.561,5.824-5.561C407.746,90.867,410.357,93.36,410.357,96.428z"/>
	<path fill="#306D23" d="M388.16,152.851c0,3.07-2.609,5.562-5.825,5.562c-3.22,0-5.827-2.491-5.827-5.562
		c0-3.071,2.607-5.561,5.827-5.561C385.551,147.29,388.16,149.78,388.16,152.851z"/>
	<ellipse fill="#306D23" cx="386.094" cy="142.803" rx="5.827" ry="5.563"/>
	<path fill="#306D23" d="M395.43,132.517c0,3.072-2.607,5.563-5.827,5.563c-3.218,0-5.826-2.492-5.826-5.563
		c0-3.07,2.61-5.563,5.826-5.563C392.822,126.954,395.43,129.447,395.43,132.517z"/>
	<path fill="#306D23" d="M398.436,122.469c0,3.07-2.607,5.562-5.824,5.562c-3.219,0-5.826-2.492-5.826-5.562
		c0-3.072,2.607-5.561,5.826-5.561C395.828,116.908,398.436,119.397,398.436,122.469z"/>
	<path fill="#306D23" d="M401.695,112.182c0,3.072-2.61,5.562-5.828,5.562s-5.826-2.49-5.826-5.562c0-3.069,2.608-5.561,5.826-5.561
		S401.695,109.113,401.695,112.182z"/>
	<ellipse fill="#306D23" cx="399.626" cy="101.895" rx="5.827" ry="5.562"/>
	<polygon fill="#3F8930" points="403.868,93.215 427.1,158.228 382.799,158.228 	"/>
	<circle fill="#3F8930" cx="405.047" cy="97.018" r="5.478"/>
	<circle fill="#3F8930" cx="384.177" cy="152.598" r="5.479"/>
	<path fill="#3F8930" d="M393.188,142.701c0,3.026-2.452,5.476-5.479,5.476c-3.023,0-5.479-2.451-5.479-5.476
		c0-3.026,2.456-5.481,5.479-5.481C390.737,137.22,393.188,139.676,393.188,142.701z"/>
	<circle fill="#3F8930" cx="391.011" cy="132.567" r="5.478"/>
	<path fill="#3F8930" d="M399.317,122.669c0,3.028-2.456,5.479-5.479,5.479c-3.027,0-5.479-2.451-5.479-5.479
		c0-3.026,2.452-5.478,5.479-5.478C396.862,117.191,399.317,119.644,399.317,122.669z"/>
	<path fill="#3F8930" d="M402.379,112.536c0,3.026-2.451,5.478-5.479,5.478c-3.026,0-5.479-2.452-5.479-5.478
		c0-3.025,2.453-5.476,5.479-5.476C399.928,107.06,402.379,109.511,402.379,112.536z"/>
	<path fill="#3F8930" d="M405.914,102.405c0,3.027-2.452,5.477-5.477,5.477c-3.027,0-5.48-2.451-5.48-5.477
		c0-3.023,2.453-5.481,5.48-5.481C403.462,96.923,405.914,99.381,405.914,102.405z"/>
	<circle fill="#3F8930" cx="425.414" cy="152.834" r="5.479"/>
	<circle fill="#3F8930" cx="421.881" cy="142.936" r="5.479"/>
	<path fill="#3F8930" d="M413.102,132.803c0,3.024,2.455,5.478,5.479,5.478c3.027,0,5.479-2.454,5.479-5.478
		c0-3.025-2.451-5.478-5.479-5.478C415.555,127.325,413.102,129.778,413.102,132.803z"/>
	<path fill="#3F8930" d="M410.274,122.906c0,3.026,2.452,5.477,5.478,5.477c3.027,0,5.479-2.451,5.479-5.477
		c0-3.027-2.451-5.48-5.479-5.48C412.727,117.426,410.274,119.879,410.274,122.906z"/>
	<circle fill="#3F8930" cx="412.689" cy="112.773" r="5.479"/>
	<path fill="#3F8930" d="M403.675,102.638c0,3.026,2.454,5.481,5.479,5.481s5.479-2.456,5.479-5.481
		c0-3.024-2.453-5.476-5.479-5.476C406.129,97.162,403.675,99.614,403.675,102.638z"/>
</g>
<g>
	<ellipse fill="#7581E6" cx="373.713" cy="157.024" rx="4.119" ry="1.026"/>
	<ellipse fill="#7581E6" cx="384.832" cy="157.105" rx="4.074" ry="0.943"/>
	<g>
		<path fill="#8190FF" d="M379.145,153.309c-2.932,0-5.654-0.506-7.91-1.373c-0.877,2.264-1.434,4.904-1.434,4.904
			c1.75,1.267,5.734,0.482,6.94,0.422c1.208-0.061,1.087-1.509,1.087-1.872c0-0.289,0.463-0.578,1.418-0.621v-0.028
			c0.928,0.05,1.379,0.333,1.379,0.62c0,0.361-0.121,1.81,1.086,1.87c1.209,0.061,5.191,0.846,6.941-0.422
			c0,0-0.562-2.663-1.446-4.934C384.924,152.78,382.144,153.309,379.145,153.309z"/>
	</g>
	<g>
		<path fill="#FFFFFF" d="M386.18,149.611l-2.63-4.319l-4.343-0.017v0.03l-4.963,0.019l-2.206,4.908l0.024-0.14
			c-0.306,0.528-0.588,1.163-0.845,1.828c2.259,0.857,4.981,1.359,7.911,1.359c3.009,0,5.799-0.528,8.093-1.429
			c-0.295-0.761-0.625-1.479-0.983-2.041C386.148,149.667,386.146,149.616,386.18,149.611z"/>
	</g>
	<path fill="#2D3551" d="M378.133,133.271"/>
	<path fill="#FCC447" d="M379.213,131.522c-3.424,0-6.4,0.879-7.92,2.173v3.92c1.52,1.295,4.496,2.173,7.92,2.173
		c3.172,0,5.959-0.755,7.561-1.895v-4.478C385.172,132.276,382.385,131.522,379.213,131.522z"/>
	<polygon fill="#FCC447" points="380.721,145.579 379.1,147.204 377.478,145.582 	"/>
	<path fill="#FFFFFF" d="M372.117,150.216c0,0,0.082-0.062,0.16-0.106l1.723-4.354l-0.457,0.001
		c-8.24,1.154-6.541,5.047-6.541,5.047C369.018,154.063,372.117,150.216,372.117,150.216z"/>
	<path fill="#FCC447" d="M369.077,147.039c-3.089,1.584-2.12,3.81-2.12,3.81c2.014,3.26,5.115-0.588,5.115-0.588
		s0.066-0.049,0.135-0.093L369.077,147.039z"/>
	<path fill="#EFB94B" d="M369.748,152.056c0,0-0.13-0.104-0.24-0.257c-0.125-0.175-0.228-0.415-0.08-0.639
		c0.275-0.422-0.031-1.563-0.964-1.353s0.455,1.795,0.708,1.847c0.105,0.023,0.12,0.149,0.186,0.253
		c0.094,0.145-0.018,0.132-0.018,0.132L369.748,152.056z"/>
	<path fill="#FFFFFF" d="M385.759,150.216c0,0-0.083-0.062-0.159-0.106l-1.725-4.354l0.458,0.001
		c8.238,1.154,6.542,5.047,6.542,5.047C388.859,154.063,385.759,150.216,385.759,150.216z"/>
	<path fill="#FCC447" d="M388.799,147.039c3.09,1.584,2.119,3.81,2.119,3.81c-2.014,3.26-5.115-0.588-5.115-0.588
		s-0.066-0.049-0.135-0.093L388.799,147.039z"/>
	<path fill="#EFB94B" d="M388.127,152.056c0,0,0.131-0.104,0.242-0.257c0.125-0.175,0.227-0.415,0.08-0.639
		c-0.275-0.422,0.029-1.563,0.963-1.353s-0.455,1.795-0.707,1.847c-0.106,0.023-0.121,0.149-0.188,0.253
		c-0.092,0.145,0.018,0.132,0.018,0.132L388.127,152.056z"/>
	<path fill="#F5F5F5" d="M380.727,145.705l0.906,1.388c0,0,3.018-0.665,3.319-1.329"/>
	<path fill="#F5F5F5" d="M377.742,145.766l-0.906,1.389c0,0-3.018-0.664-3.319-1.328"/>
	<circle fill="#FCC447" cx="386.881" cy="140.285" r="1.128"/>
	<path fill="#FCC447" d="M372.795,142.175c0,0.476-0.361,0.864-0.807,0.864l0,0c-0.445,0-0.807-0.386-0.807-0.864v-6.561
		c0-0.477,0.362-0.864,0.807-0.864l0,0c0.445,0,0.807,0.387,0.807,0.864V142.175z"/>
	<path fill="#FCC447" d="M386.875,142.389c0,0.483-0.381,0.875-0.852,0.875l0,0c-0.471,0-0.854-0.392-0.854-0.875v-6.646
		c0-0.482,0.383-0.874,0.854-0.874l0,0c0.471,0,0.852,0.391,0.852,0.874V142.389z"/>
	<circle fill="#FCC447" cx="370.996" cy="140.241" r="1.128"/>
	
		<line fill="none" stroke="#FFDFD3" stroke-width="0.0902" stroke-miterlimit="10" x1="376.982" y1="142.572" x2="381.194" y2="142.572"/>
	<ellipse fill="#FCC447" cx="374.281" cy="142.676" rx="3.094" ry="2.986"/>
	<ellipse fill="#FCC447" cx="383.797" cy="142.715" rx="3.094" ry="2.986"/>
	<rect x="373.834" y="136.787" fill="#FCC447" width="10.197" height="8.862"/>
	<rect x="372.74" y="137.983" fill="#FCC447" width="1.121" height="2.161"/>
	<rect x="383.707" y="138.196" fill="#FCC447" width="1.674" height="2.162"/>
	<circle cx="374.875" cy="140.811" r="0.823"/>
	<circle cx="382.869" cy="140.722" r="0.823"/>
	<path fill="#EFB94B" d="M385.738,143.713c0,0.582-0.472,1.054-1.053,1.054h-11.334c-0.582,0-1.055-0.472-1.055-1.054v-0.176
		c0-0.582,0.474-1.055,1.055-1.055h11.334c0.582,0,1.053,0.473,1.053,1.055V143.713z"/>
	
		<line fill="none" stroke="#FFDFD3" stroke-width="0.0878" stroke-miterlimit="10" x1="376.924" y1="142.805" x2="381.024" y2="142.805"/>
	<ellipse fill="#FCC447" cx="383.854" cy="134.424" rx="3.062" ry="2.919"/>
	<ellipse fill="#FCC447" cx="374.259" cy="134.477" rx="3.126" ry="2.986"/>
	<rect x="374.272" y="131.49" fill="#FCC447" width="9.776" height="1.328"/>
	<rect x="386.5" y="134.343" fill="#FCC447" width="0.408" height="5.062"/>
	<rect x="371.164" y="134.207" fill="#FCC447" width="0.904" height="2.414"/>
	<path fill="#D58C4F" d="M366.41,148.787c-1.725,0-3.123,1.399-3.123,3.124c0,1.724,1.398,3.123,3.123,3.123
		c1.726,0,3.124-1.399,3.124-3.123C369.533,150.186,368.136,148.787,366.41,148.787z M366.547,153.405
		c-0.7,0-1.268-0.567-1.268-1.267c0-0.701,0.567-1.268,1.268-1.268c0.699,0,1.267,0.568,1.267,1.268
		C367.813,152.838,367.246,153.405,366.547,153.405z"/>
	<path fill="#FF6260" d="M366.41,149.105c-1.55,0-2.807,1.276-2.807,2.852c0,1.575,1.257,2.851,2.807,2.851
		c1.551,0,2.807-1.277,2.807-2.851C369.217,150.381,367.961,149.105,366.41,149.105z M366.41,153.383
		c-0.671,0-1.217-0.554-1.217-1.236c0-0.683,0.546-1.235,1.217-1.235c0.672,0,1.217,0.552,1.217,1.235
		C367.627,152.828,367.082,153.383,366.41,153.383z"/>
	<circle fill="#FCD1C3" cx="365.211" cy="150.349" r="0.249"/>
	<circle fill="#8190FF" cx="364.464" cy="150.689" r="0.249"/>
	<circle fill="#FCD1C3" cx="364.736" cy="151.503" r="0.25"/>
	<circle fill="#FCD1C3" cx="364.102" cy="152.047" r="0.249"/>
	<circle fill="#FCC447" cx="364.781" cy="152.522" r="0.249"/>
	<circle fill="#FCD1C3" cx="364.781" cy="153.36" r="0.249"/>
	<circle fill="#FCD1C3" cx="365.754" cy="149.647" r="0.249"/>
	<circle fill="#8190FF" cx="368.537" cy="151.73" r="0.249"/>
	<circle fill="#FCD1C3" cx="367.769" cy="150.961" r="0.249"/>
	<circle fill="#FCC447" cx="366.998" cy="150.531" r="0.249"/>
	<circle fill="#FCD1C3" cx="367.769" cy="150.191" r="0.249"/>
	<circle fill="#8190FF" cx="367.633" cy="153.405" r="0.249"/>
	<circle fill="#FCD1C3" cx="366.841" cy="149.557" r="0.249"/>
	<circle fill="#FCC447" cx="366.048" cy="153.857" r="0.249"/>
	<circle fill="#FCD1C3" cx="366.772" cy="154.151" r="0.249"/>
	<circle fill="#FCD1C3" cx="368.584" cy="152.681" r="0.249"/>
</g>
<path fill="#8DC73F" d="M178.303,165.841c0,1.336,4.199,2.16,10.656,2.16h284.443c6.457,0,11.15-0.824,11.15-2.16v-6.047
	c0-1.335-4.693-1.565-11.15-1.565H188.959c-6.457,0-10.656,0.23-10.656,1.565V165.841z"/>
<path fill="#AECEF4" d="M316.441,165.841c0,1.336,0.315,2.16,0.869,2.16h24.402c0.555,0,0.793-0.824,0.793-2.16v-6.047
	c0-1.335-0.238-1.565-0.793-1.565h-24.402c-0.555,0-0.869,0.23-0.869,1.565V165.841z"/>
<ellipse fill="#7581E6" cx="304.857" cy="157.065" rx="2.439" ry="0.608"/>
<ellipse fill="#7581E6" cx="311.445" cy="157.114" rx="2.412" ry="0.559"/>
<g>
	<path fill="#8190FF" d="M308.076,154.865c-1.737,0-3.35-0.299-4.686-0.812c-0.518,1.341-0.85,2.903-0.85,2.903
		c1.037,0.751,3.396,0.287,4.111,0.251s0.644-0.893,0.644-1.107c0-0.172,0.274-0.343,0.841-0.368v-0.017
		c0.549,0.029,0.816,0.197,0.816,0.366c0,0.215-0.072,1.072,0.643,1.108c0.716,0.036,3.074,0.501,4.111-0.25
		c0,0-0.332-1.577-0.855-2.921C311.498,154.552,309.852,154.865,308.076,154.865z"/>
</g>
<g>
	<path fill="#EA534C" d="M312.242,152.675l-1.558-2.559l-2.572-0.01v0.018l-2.939,0.011l-1.307,2.906l0.015-0.082
		c-0.18,0.313-0.35,0.688-0.5,1.083c1.338,0.508,2.949,0.805,4.686,0.805c1.781,0,3.434-0.313,4.792-0.846
		c-0.175-0.451-0.37-0.877-0.582-1.209C312.223,152.708,312.222,152.678,312.242,152.675z"/>
</g>
<path fill="#2D3551" d="M307.583,142.855"/>
<circle fill="#FCC447" cx="312.785" cy="147.252" r="0.671"/>
<path fill="#FCC447" d="M304.416,148.373c0,0.284-0.214,0.513-0.479,0.513l0,0c-0.266,0-0.479-0.23-0.479-0.513v-3.897
	c0-0.284,0.213-0.513,0.479-0.513l0,0c0.265,0,0.479,0.229,0.479,0.513V148.373z"/>
<path fill="#FCC447" d="M312.781,148.501c0,0.287-0.227,0.52-0.506,0.52l0,0c-0.279,0-0.506-0.231-0.506-0.52v-3.947
	c0-0.288,0.227-0.52,0.506-0.52l0,0c0.279,0,0.506,0.232,0.506,0.52V148.501z"/>
<path fill="#FCC447" d="M308.235,141.818c-2.059,0-3.85,0.521-4.763,1.288v2.322c0.913,0.766,2.704,1.287,4.763,1.287
	c1.908,0,3.585-0.447,4.548-1.122v-2.652C311.82,142.265,310.144,141.818,308.235,141.818z"/>
<circle fill="#FCC447" cx="303.35" cy="147.224" r="0.671"/>
<path fill="#EA534C" d="M303.975,153.033c0,0,0.049-0.036,0.096-0.063l1.041-2.579l-0.277,0.001
	c-4.967,0.684-3.943,2.989-3.943,2.989C302.105,155.312,303.975,153.033,303.975,153.033z"/>
<path fill="#FCC447" d="M302.129,151.152c-1.852,0.938-1.271,2.258-1.271,2.258c1.208,1.929,3.065-0.349,3.065-0.349
	s0.039-0.029,0.081-0.054L302.129,151.152z"/>
<path fill="#EFB94B" d="M302.51,154.123c0,0-0.076-0.061-0.143-0.152c-0.074-0.102-0.134-0.245-0.047-0.378
	c0.162-0.25-0.018-0.925-0.57-0.8c-0.553,0.125,0.271,1.063,0.42,1.094c0.062,0.014,0.07,0.089,0.11,0.151
	c0.054,0.084-0.011,0.078-0.011,0.078L302.51,154.123z"/>
<path fill="#EA534C" d="M311.992,153.033c0,0-0.048-0.036-0.095-0.063l-1.021-2.579l0.271,0.001
	c4.879,0.684,3.873,2.989,3.873,2.989C313.829,155.312,311.992,153.033,311.992,153.033z"/>
<path fill="#FCC447" d="M313.793,151.152c1.83,0.938,1.256,2.258,1.256,2.258c-1.193,1.929-3.029-0.349-3.029-0.349
	s-0.039-0.029-0.08-0.054L313.793,151.152z"/>
<path fill="#EFB94B" d="M313.396,154.123c0,0,0.077-0.061,0.144-0.152c0.074-0.102,0.134-0.245,0.047-0.378
	c-0.163-0.25,0.018-0.925,0.57-0.8c0.552,0.125-0.271,1.063-0.42,1.094c-0.062,0.014-0.07,0.089-0.11,0.151
	c-0.054,0.084,0.011,0.078,0.011,0.078L313.396,154.123z"/>
<line fill="none" stroke="#FFDFD3" stroke-width="0.0536" stroke-miterlimit="10" x1="306.904" y1="148.61" x2="309.406" y2="148.61"/>
<path fill="#FCC447" d="M305.207,142.324l-1.334-0.933c-0.051-0.044-0.123-0.056-0.188-0.025c-0.066,0.031-0.1,0.103-0.092,0.174
	l-0.109,1.623L305.207,142.324z"/>
<path fill="#FCC447" d="M306.211,142.337l-1.072-1.225c-0.038-0.055-0.105-0.085-0.174-0.069c-0.073,0.015-0.125,0.075-0.133,0.146
	l-0.496,1.55L306.211,142.337z"/>
<path fill="#FCC447" d="M307.238,142.436l-0.779-1.43c-0.025-0.061-0.086-0.104-0.156-0.105c-0.074-0.001-0.137,0.046-0.161,0.113
	l-0.82,1.405L307.238,142.436z"/>
<path fill="#FCC447" d="M308.456,142.352l-0.78-1.429c-0.025-0.062-0.086-0.106-0.155-0.106c-0.075,0-0.137,0.046-0.161,0.113
	l-0.821,1.406L308.456,142.352z"/>
<path fill="#FCC447" d="M309.635,142.352l-0.779-1.429c-0.027-0.062-0.086-0.106-0.156-0.106c-0.074,0-0.137,0.046-0.162,0.113
	l-0.82,1.406L309.635,142.352z"/>
<path fill="#FCC447" d="M310.851,142.428l-0.778-1.429c-0.027-0.062-0.086-0.104-0.156-0.106c-0.073,0-0.137,0.047-0.162,0.113
	l-0.82,1.406L310.851,142.428z"/>
<path fill="#FCC447" d="M312.068,142.618l-0.779-1.429c-0.027-0.062-0.086-0.105-0.156-0.106c-0.074-0.001-0.137,0.046-0.161,0.113
	l-0.819,1.405L312.068,142.618z"/>
<path fill="#FCC447" d="M311.099,142.249l1.335-0.933c0.051-0.044,0.123-0.056,0.188-0.025c0.065,0.032,0.1,0.103,0.093,0.173
	l0.108,1.625L311.099,142.249z"/>
<path fill="#FCC447" d="M310.023,142.261l1.072-1.226c0.039-0.055,0.105-0.084,0.176-0.07c0.072,0.016,0.123,0.075,0.133,0.146
	l0.494,1.55L310.023,142.261z"/>
<ellipse fill="#FCC447" cx="305.301" cy="148.671" rx="1.838" ry="1.775"/>
<ellipse fill="#FCC447" cx="310.953" cy="148.695" rx="1.838" ry="1.774"/>
<rect x="305.034" y="145.173" fill="#FCC447" width="6.058" height="5.264"/>
<rect x="304.385" y="145.883" fill="#FCC447" width="0.666" height="1.284"/>
<rect x="310.899" y="146.01" fill="#FCC447" width="0.993" height="1.284"/>
<circle cx="305.652" cy="147.563" r="0.489"/>
<circle cx="310.402" cy="147.51" r="0.489"/>
<path fill="#EFB94B" d="M312.106,149.287c0,0.346-0.28,0.625-0.626,0.625h-6.732c-0.347,0-0.627-0.279-0.627-0.625v-0.104
	c0-0.346,0.281-0.626,0.627-0.626h6.732c0.346,0,0.626,0.28,0.626,0.626V149.287L312.106,149.287z"/>
<line fill="none" stroke="#FFDFD3" stroke-width="0.0522" stroke-miterlimit="10" x1="306.87" y1="148.748" x2="309.306" y2="148.748"/>
<g>
	<ellipse fill="#306D23" cx="276.692" cy="121.962" rx="3.362" ry="3.21"/>
	<ellipse fill="#306D23" cx="263.879" cy="154.528" rx="3.363" ry="3.211"/>
	<ellipse fill="#306D23" cx="266.049" cy="148.729" rx="3.363" ry="3.211"/>
	<ellipse fill="#306D23" cx="268.074" cy="142.792" rx="3.364" ry="3.211"/>
	<ellipse fill="#306D23" cx="269.811" cy="136.993" rx="3.363" ry="3.209"/>
	<ellipse fill="#306D23" cx="271.691" cy="131.056" rx="3.363" ry="3.21"/>
	<ellipse fill="#306D23" cx="273.86" cy="125.118" rx="3.362" ry="3.211"/>
	<polygon fill="#3F8930" points="276.31,120.052 289.718,157.576 264.148,157.576 	"/>
	<circle fill="#3F8930" cx="276.989" cy="122.302" r="3.162"/>
	<circle fill="#3F8930" cx="264.943" cy="154.382" r="3.162"/>
	<circle fill="#3F8930" cx="266.982" cy="148.67" r="3.162"/>
	<circle fill="#3F8930" cx="268.889" cy="142.82" r="3.162"/>
	<circle fill="#3F8930" cx="270.52" cy="137.108" r="3.162"/>
	<circle fill="#3F8930" cx="272.287" cy="131.259" r="3.162"/>
	<circle fill="#3F8930" cx="274.328" cy="125.411" r="3.162"/>
	<circle fill="#3F8930" cx="288.744" cy="154.518" r="3.162"/>
	<circle fill="#3F8930" cx="286.705" cy="148.806" r="3.162"/>
	<circle fill="#3F8930" cx="284.801" cy="142.956" r="3.162"/>
	<path fill="#3F8930" d="M280.006,137.244c0,1.747,1.416,3.162,3.162,3.162c1.748,0,3.162-1.415,3.162-3.162
		c0-1.748-1.414-3.163-3.162-3.163C281.422,134.082,280.006,135.496,280.006,137.244z"/>
	<circle fill="#3F8930" cx="281.4" cy="131.396" r="3.162"/>
	<circle fill="#3F8930" cx="279.359" cy="125.546" r="3.162"/>
</g>
<g>
	<ellipse fill="#306D23" cx="198.306" cy="123.036" rx="3.362" ry="3.209"/>
	<ellipse fill="#306D23" cx="185.493" cy="155.601" rx="3.362" ry="3.211"/>
	<ellipse fill="#306D23" cx="187.664" cy="149.803" rx="3.363" ry="3.211"/>
	<ellipse fill="#306D23" cx="189.688" cy="143.866" rx="3.363" ry="3.21"/>
	<ellipse fill="#306D23" cx="191.425" cy="138.067" rx="3.362" ry="3.21"/>
	<ellipse fill="#306D23" cx="193.305" cy="132.129" rx="3.364" ry="3.21"/>
	<ellipse fill="#306D23" cx="195.474" cy="126.191" rx="3.363" ry="3.21"/>
	<polygon fill="#3F8930" points="197.923,120.703 211.332,158.228 185.762,158.228 	"/>
	<circle fill="#3F8930" cx="198.604" cy="123.376" r="3.162"/>
	<circle fill="#3F8930" cx="186.557" cy="155.456" r="3.162"/>
	<circle fill="#3F8930" cx="188.596" cy="149.743" r="3.162"/>
	<circle fill="#3F8930" cx="190.502" cy="143.894" r="3.162"/>
	<circle fill="#3F8930" cx="192.134" cy="138.182" r="3.162"/>
	<circle fill="#3F8930" cx="193.901" cy="132.333" r="3.162"/>
	<circle fill="#3F8930" cx="195.941" cy="126.486" r="3.162"/>
	<circle fill="#3F8930" cx="210.359" cy="155.592" r="3.162"/>
	<circle fill="#3F8930" cx="208.319" cy="149.879" r="3.162"/>
	<circle fill="#3F8930" cx="206.415" cy="144.03" r="3.162"/>
	<path fill="#3F8930" d="M201.62,138.319c0,1.746,1.415,3.16,3.162,3.16c1.747,0,3.162-1.414,3.162-3.16
		c0-1.748-1.416-3.164-3.162-3.164C203.035,135.155,201.62,136.57,201.62,138.319z"/>
	<circle fill="#3F8930" cx="203.014" cy="132.47" r="3.162"/>
	<circle fill="#3F8930" cx="200.974" cy="126.62" r="3.162"/>
</g>
<g>
	<ellipse fill="#306D23" cx="467.824" cy="121.962" rx="3.363" ry="3.21"/>
	<ellipse fill="#306D23" cx="455.012" cy="154.528" rx="3.363" ry="3.211"/>
	<ellipse fill="#306D23" cx="457.184" cy="148.729" rx="3.363" ry="3.211"/>
	<ellipse fill="#306D23" cx="459.209" cy="142.792" rx="3.363" ry="3.211"/>
	<ellipse fill="#306D23" cx="460.943" cy="136.993" rx="3.363" ry="3.209"/>
	<ellipse fill="#306D23" cx="462.824" cy="131.056" rx="3.363" ry="3.21"/>
	<ellipse fill="#306D23" cx="464.994" cy="125.118" rx="3.361" ry="3.211"/>
	<polygon fill="#3F8930" points="467.443,120.052 480.852,157.576 455.281,157.576 	"/>
	<circle fill="#3F8930" cx="468.123" cy="122.302" r="3.162"/>
	<circle fill="#3F8930" cx="456.076" cy="154.382" r="3.162"/>
	<circle fill="#3F8930" cx="458.115" cy="148.67" r="3.162"/>
	<circle fill="#3F8930" cx="460.021" cy="142.82" r="3.162"/>
	<circle fill="#3F8930" cx="461.654" cy="137.108" r="3.162"/>
	<circle fill="#3F8930" cx="463.42" cy="131.259" r="3.162"/>
	<circle fill="#3F8930" cx="465.461" cy="125.411" r="3.162"/>
	<circle fill="#3F8930" cx="479.879" cy="154.518" r="3.162"/>
	<circle fill="#3F8930" cx="477.838" cy="148.806" r="3.162"/>
	<circle fill="#3F8930" cx="475.934" cy="142.956" r="3.162"/>
	<path fill="#3F8930" d="M471.139,137.244c0,1.747,1.416,3.162,3.162,3.162c1.748,0,3.164-1.415,3.164-3.162
		c0-1.748-1.416-3.163-3.164-3.163C472.555,134.081,471.139,135.496,471.139,137.244z"/>
	<circle fill="#3F8930" cx="472.533" cy="131.396" r="3.162"/>
	<circle fill="#3F8930" cx="470.492" cy="125.546" r="3.163"/>
</g>
<path opacity="0.57" fill="#AECEF4" enable-background="new    " d="M484.732,158.228c-0.83-86.011-69.297-153.994-153.65-153.994
	c-84.353,0-152.82,67.983-153.652,153.994H484.732z"/>
<path opacity="0.79" fill="#D7E7FB" enable-background="new    " d="M343.994,15.735c-4.703-0.477-9.477-0.695-14.305-0.695
	c-76.953,0-139.412,61.738-140.17,138.626h28.611C218.841,81.991,273.751,22.845,343.994,15.735z"/>
</svg>
