<?xml version="1.0" encoding="utf-8"?>
<!-- Generator: Adobe Illustrator 15.1.0, SVG Export Plug-In . SVG Version: 6.00 Build 0)  -->
<!DOCTYPE svg PUBLIC "-//W3C//DTD SVG 1.1//EN" "http://www.w3.org/Graphics/SVG/1.1/DTD/svg11.dtd">
<svg version="1.1" id="Layer_1" xmlns="http://www.w3.org/2000/svg" xmlns:xlink="http://www.w3.org/1999/xlink" x="0px" y="0px"
	 width="50px" height="50px" viewBox="0 0 50 50" enable-background="new 0 0 50 50" xml:space="preserve">
<g>
	<path fill="#8190FF" d="M25.717,1.951C13.17,1.951,3,12.123,3,24.668c0,12.547,10.17,22.717,22.717,22.717
		c12.547,0,22.717-10.17,22.717-22.717C48.434,12.123,38.264,1.951,25.717,1.951z M25.838,28.535c-2.203,0-3.989-1.784-3.989-3.988
		c0-2.203,1.786-3.987,3.989-3.987s3.987,1.784,3.987,3.987C29.825,26.751,28.041,28.535,25.838,28.535z"/>
	<path fill="#6373C1" d="M25.911,32.265c-4.124,0-7.478-3.354-7.478-7.476c0-4.125,3.354-7.478,7.478-7.478
		c4.121,0,7.476,3.353,7.476,7.478C33.387,28.911,30.031,32.265,25.911,32.265z M25.911,19.132c-3.12,0-5.656,2.537-5.656,5.657
		c0,3.117,2.536,5.654,5.656,5.654c3.118,0,5.655-2.537,5.655-5.654C31.565,21.669,29.028,19.132,25.911,19.132z"/>
</g>
<g>
	<path fill="#FF6260" d="M48.372,24.551c0-12.574-10.193-22.768-22.767-22.768c-12.574,0-22.768,10.193-22.768,22.768
		s10.194,22.768,22.768,22.768C38.179,47.318,48.372,37.125,48.372,24.551z M21.73,24.671c0-2.207,1.787-3.996,3.997-3.996
		c2.206,0,3.997,1.789,3.997,3.996c0,2.209-1.791,3.998-3.997,3.998C23.517,28.669,21.73,26.88,21.73,24.671z"/>
	<path fill="#EA534C" d="M17.992,24.732c0-4.131,3.361-7.493,7.492-7.493c4.133,0,7.494,3.362,7.494,7.493
		c0,4.133-3.361,7.495-7.494,7.495C21.353,32.228,17.992,28.865,17.992,24.732z M31.153,24.732c0-3.124-2.543-5.667-5.668-5.667
		s-5.667,2.543-5.667,5.667c0,3.126,2.542,5.668,5.667,5.668S31.153,27.858,31.153,24.732z"/>
</g>
</svg>
