<?xml version="1.0" encoding="utf-8"?>
<!-- Generator: Adobe Illustrator 15.1.0, SVG Export Plug-In . SVG Version: 6.00 Build 0)  -->
<!DOCTYPE svg PUBLIC "-//W3C//DTD SVG 1.1//EN" "http://www.w3.org/Graphics/SVG/1.1/DTD/svg11.dtd">
<svg version="1.1" id="Layer_1" xmlns="http://www.w3.org/2000/svg" xmlns:xlink="http://www.w3.org/1999/xlink" x="0px" y="0px"
	 width="700px" height="500px" viewBox="0 0 700 500" enable-background="new 0 0 700 500" xml:space="preserve">
<path opacity="0.3" fill="#EFEFEF" stroke="#FFFFFF" d="M32.5,298.5v168.797c0,6.739,5.44,12.203,12.15,12.203h623.7
	c6.71,0,12.15-5.464,12.15-12.203V298.5H32.5z"/>
<path fill="#FFFFFF" d="M672,460c0,6.627-5.373,12-12,12H44c-6.627,0-12-5.373-12-12V31c0-6.627,5.373-12,12-12h616
	c6.627,0,12,5.373,12,12V460z"/>
<rect x="84" y="52" fill="#292929" width="513" height="384"/>
<polygon fill="#353535" points="84,136 84,437 594,437 594,430 "/>
<circle fill="#FCD4D5" cx="60.856" cy="249.84" r="8.25"/>
<circle fill="#F5F2F2" cx="635.576" cy="249.09" r="19.499"/>
</svg>
