<?xml version="1.0" encoding="utf-8"?>
<!-- Generator: Adobe Illustrator 15.1.0, SVG Export Plug-In . SVG Version: 6.00 Build 0)  -->
<!DOCTYPE svg PUBLIC "-//W3C//DTD SVG 1.1//EN" "http://www.w3.org/Graphics/SVG/1.1/DTD/svg11.dtd">
<svg version="1.1" id="Layer_1" xmlns="http://www.w3.org/2000/svg" xmlns:xlink="http://www.w3.org/1999/xlink" x="0px" y="0px"
	 width="210px" height="233.254px" viewBox="0 0 210 233.254" enable-background="new 0 0 210 233.254" xml:space="preserve">
<g>
	<path fill-rule="evenodd" clip-rule="evenodd" fill="#FFFFFF" d="M73.404,61.942c0.161-1.628,0.119-3.459,0.119-5.248
		C73.642,57.655,73.879,60.781,73.404,61.942z"/>
	<path fill-rule="evenodd" clip-rule="evenodd" fill="#FFFFFF" d="M73.404,66.833c0.27,0.489,0.046,2.499,0.119,3.579
		C73.254,69.925,73.477,67.914,73.404,66.833z"/>
	<path fill-rule="evenodd" clip-rule="evenodd" fill="#FFFFFF" d="M44.178,92.48c0.159,0,0.318,0,0.477,0
		c-0.003,0.117-0.145,0.094-0.238,0.121c-0.14,0.316,0.229,0.701,0,0.715C43.985,93.229,44.339,92.945,44.178,92.48z"/>
	<path fill-rule="evenodd" clip-rule="evenodd" fill="#FFFFFF" d="M54.079,93.795c-0.096,0.222-0.2,0.436-0.239,0.714
		C53.436,94.459,53.751,93.815,54.079,93.795z"/>
	<path fill-rule="evenodd" clip-rule="evenodd" fill="#FFFFFF" d="M49.307,94.152c0.392,0.187,0.526,0.177,0.834,0.238
		C50.015,94.866,49.322,94.505,49.307,94.152z"/>
</g>
<path fill="#FF6260" d="M2.501,52.181c0,0,15.452,13.52,15.727,21.519c0.276,8.003,36.727-45.231,37.677-43.86l-52.3,21.789"/>
<path fill="#FF6260" d="M55.905,29.839l-36.021,44.69c0,0,48.007-0.554,56.009,5.793c8.002,6.347,63.734-1.104,63.734-1.104
	s59.447-23.361,61.93-19.222c2.483,4.138-28.82-31.82-39.581-32.373c-10.76-0.552-12.139-2.482-12.139-2.482L55.905,29.839z"/>
<path fill="#FF6260" d="M200.51,59.021c0,0,2.782-20.072,9.404-24.573c6.621-4.5-60.107-7.776-59.453-9.312l49.51,34.395"/>
<g>
	<rect x="91" y="72" fill="#FCD1C3" width="44" height="44"/>
	<circle fill="#0A6F9B" cx="145.672" cy="223.708" r="4.367"/>
	<circle fill="#0A6F9B" cx="135.606" cy="227.074" r="4.368"/>
	<circle fill="#0A6F9B" cx="154.318" cy="217.603" r="4.367"/>
	<circle fill="#0A6F9B" cx="70.583" cy="221.564" r="4.367"/>
	<circle fill="#0A6F9B" cx="80.649" cy="224.931" r="4.368"/>
	<circle fill="#0A6F9B" cx="61.938" cy="215.459" r="4.367"/>
	<ellipse fill="#AECEF4" cx="110.122" cy="150.522" rx="77.914" ry="80.973"/>
	<circle fill="#AECEF4" cx="110.132" cy="103.016" r="58.318"/>
	<circle fill="#F5F5F5" cx="86.307" cy="75.105" r="7.299"/>
	<path fill="#F5F5F5" d="M140.67,75.69c0,4.03-3.269,7.299-7.301,7.299c-4.029,0-7.298-3.269-7.298-7.299
		c0-4.034,3.269-7.302,7.298-7.302C137.401,68.389,140.67,71.656,140.67,75.69z"/>
	<circle fill="#00233D" cx="85.998" cy="74.536" r="1.812"/>
	<path fill="#0A6F9B" d="M118.801,83.191c0,2.044-1.656,3.7-3.7,3.7h-7.894c-2.043,0-3.699-1.656-3.699-3.7l0,0
		c0-2.042,1.656-3.699,3.699-3.699h7.894C117.145,79.492,118.801,81.149,118.801,83.191L118.801,83.191z"/>
	
		<line fill="none" stroke="#0A6F9B" stroke-width="1.754" stroke-miterlimit="10" x1="68.961" y1="80.706" x2="32.809" y2="76.176"/>
	
		<line fill="none" stroke="#0A6F9B" stroke-width="1.754" stroke-miterlimit="10" x1="68.899" y1="84.816" x2="32.465" y2="84.933"/>
	
		<line fill="none" stroke="#0A6F9B" stroke-width="1.754" stroke-miterlimit="10" x1="68.653" y1="88.665" x2="32.419" y2="92.488"/>
	
		<ellipse transform="matrix(-0.9997 -0.0263 0.0263 -0.9997 83.3562 326.734)" fill="#AECEF4" cx="43.827" cy="162.819" rx="14.909" ry="42.825"/>
	<g>
		<circle fill="#AECEF4" cx="85.704" cy="35.181" r="14.325"/>
		<circle fill="#AECEF4" cx="83.09" cy="15.123" r="9.897"/>
		<path fill="#AECEF4" d="M73.281,16.444c0,0-2.444,16.973-1.773,20.649c0.671,3.678,28.064-1.065,28.064-1.065
			s1.86,0.801-6.674-22.227"/>
	</g>
	<g>
		<circle fill="#AECEF4" cx="135.18" cy="35.116" r="14.325"/>
		<circle fill="#AECEF4" cx="137.362" cy="15.006" r="9.897"/>
		<path fill="#AECEF4" d="M127.518,13.981c0,0-6.371,15.918-6.586,19.65c-0.213,3.732,27.526,5.573,27.526,5.573
			s1.618,1.217-1.252-23.174"/>
	</g>
	<circle fill="#00233D" cx="132.713" cy="75.705" r="1.812"/>
	
		<ellipse transform="matrix(-0.9991 0.0418 -0.0418 -0.9991 358.5206 315.8109)" fill="#AECEF4" cx="175.962" cy="161.65" rx="14.909" ry="42.824"/>
	<ellipse fill="#D7E7FB" cx="111.009" cy="157.388" rx="60.948" ry="60.953"/>
	<path fill="#AECEF4" d="M110.33,119.615c2.845,0,5.157,2.251,5.27,5.068h4.586c-0.971-4.543-5.004-7.947-9.835-7.947
		c-4.83,0-8.863,3.404-9.833,7.947h4.544C105.174,121.866,107.486,119.615,110.33,119.615z"/>
	<path fill="#AECEF4" d="M85.412,119.778c2.845,0,5.157,2.252,5.269,5.069h4.586c-0.971-4.543-5.003-7.948-9.834-7.948
		c-4.83,0-8.863,3.405-9.834,7.948h4.545C80.255,122.03,82.568,119.778,85.412,119.778z"/>
	<path fill="#AECEF4" d="M134.827,120.624c2.844,0,5.156,2.25,5.269,5.067h4.585c-0.97-4.542-5.003-7.947-9.834-7.947
		c-4.829,0-8.863,3.405-9.833,7.947h4.545C129.67,122.874,131.982,120.624,134.827,120.624z"/>
	
		<line fill="none" stroke="#0A6F9B" stroke-width="1.754" stroke-miterlimit="10" x1="149.158" y1="81.096" x2="185.31" y2="76.565"/>
	
		<line fill="none" stroke="#0A6F9B" stroke-width="1.754" stroke-miterlimit="10" x1="149.219" y1="85.205" x2="185.654" y2="85.322"/>
	
		<line fill="none" stroke="#0A6F9B" stroke-width="1.754" stroke-miterlimit="10" x1="149.465" y1="89.055" x2="185.699" y2="92.878"/>
	<path fill="#AECEF4" d="M71.293,133.291c2.844,0,5.156,2.251,5.268,5.068h4.586c-0.97-4.543-5.003-7.947-9.834-7.947
		c-4.83,0-8.863,3.404-9.834,7.947h4.545C66.136,135.542,68.448,133.291,71.293,133.291z"/>
	<path fill="#AECEF4" d="M96.434,133.097c2.844,0,5.156,2.251,5.269,5.067h4.585c-0.97-4.542-5.003-7.947-9.833-7.947
		s-8.863,3.405-9.834,7.947h4.545C91.276,135.348,93.589,133.097,96.434,133.097z"/>
	<path fill="#AECEF4" d="M122.549,133.486c2.844,0,5.156,2.25,5.269,5.067h4.585c-0.97-4.542-5.003-7.947-9.834-7.947
		c-4.829,0-8.863,3.405-9.833,7.947h4.545C117.392,135.736,119.704,133.486,122.549,133.486z"/>
	<path fill="#AECEF4" d="M149.834,133.486c2.844,0,5.156,2.251,5.268,5.067h4.586c-0.971-4.542-5.004-7.946-9.834-7.946
		s-8.863,3.404-9.834,7.946h4.545C144.677,135.737,146.988,133.486,149.834,133.486z"/>
	<circle fill="#FFDFD3" cx="73.721" cy="83.988" r="2.923"/>
	<circle fill="#FFDFD3" cx="143.102" cy="84.768" r="2.923"/>
</g>
<path fill="#EA534C" d="M86.395,2.319c0,0,23.576,3.024,39.095-2.562l24.223,25.735l-98.293,7.802L86.395,2.319z"/>
<path fill="#EA534C" d="M86.395,2.319c0,0-69.888,31.098-85.063,49.861l52.719-20.348L86.395,2.319z"/>
<path fill="#EA534C" d="M125.49-0.004c0,0,88.993,25.48,83.876,33.385c-5.636,8.707-1.814,1.545-1.814,1.545l-57.839-9.194
	L125.49-0.004z"/>
<polygon fill="#FEF7EA" points="110,61 105.794,61 105.559,29.168 110,28.617 "/>
<polygon fill="#FEF7EA" points="80.707,64.708 76.697,67.612 51.701,33.102 56.39,32.71 "/>
<rect x="143.811" y="25.465" transform="matrix(0.9525 0.3045 -0.3045 0.9525 20.6308 -42.3053)" fill="#FEF7EA" width="4.298" height="39.063"/>
<path fill="#FEF7EA" d="M111.947,56.977c-20.683,0-39.055,5.587-50.654,14.234l3.796,2.146
	c11.637-7.398,28.601-12.062,47.495-12.062c15.271,0,29.277,3.051,40.233,8.126l3.546-2.211
	C144.91,60.879,129.236,56.977,111.947,56.977z"/>
<path fill="#FEF7EA" d="M156.363,67.21c0,0,3.025,4.186,3.025,4.479c0,0.292-6.527-2.268-6.527-2.268"/>
<path fill="#FEF7EA" d="M61.293,71.211l-3.834,6.713c0,0,6.782-4.944,7.63-4.567"/>
<path fill="#2D3551" d="M169.613,147.694"/>
</svg>
