<?xml version="1.0" encoding="UTF-8" standalone="no"?><svg xmlns="http://www.w3.org/2000/svg" xmlns:xlink="http://www.w3.org/1999/xlink" clip-rule="evenodd" stroke-miterlimit="10" viewBox="0 0 1024 768"><desc>SVG generated by Keynote</desc><defs></defs><g transform="matrix(1.00, 0.00, -0.00, -1.00, 0.0, 768.0)"><path d="M 0.0 768.0 L 1024.0 768.0 L 1024.0 0.0 L 0.0 0.0 Z M 0.0 768.0 " fill="#FEFFFF"></path><text xml:space="preserve" font-family="GearedSlab-Regular,Geared Slab" font-size="130.0" fill="#8190FF" transform="matrix(1.00, 0.00, -0.00, -1.00, 259.1, 349.5)">G</text><text xml:space="preserve" font-family="GearedSlab-Regular,Geared Slab" font-size="130.0" fill="#8190FF" transform="matrix(1.00, 0.00, -0.00, -1.00, 313.1, 349.5)">R</text><text xml:space="preserve" font-family="GearedSlab-Regular,Geared Slab" font-size="130.0" fill="#8190FF" transform="matrix(1.00, 0.00, -0.00, -1.00, 370.3, 349.5)">A</text><text xml:space="preserve" font-family="GearedSlab-Regular,Geared Slab" font-size="130.0" fill="#FFC455" transform="matrix(1.00, 0.00, -0.00, -1.00, 431.5, 349.5)">P</text><text xml:space="preserve" font-family="GearedSlab-Regular,Geared Slab" font-size="130.0" fill="#FFC455" transform="matrix(1.00, 0.00, -0.00, -1.00, 485.7, 349.5)">H</text><text xml:space="preserve" font-family="GearedSlab-Regular,Geared Slab" font-size="130.0" fill="#FFC455" transform="matrix(1.00, 0.00, -0.00, -1.00, 547.0, 349.5)">I</text><text xml:space="preserve" font-family="GearedSlab-Regular,Geared Slab" font-size="130.0" fill="#FFC455" transform="matrix(1.00, 0.00, -0.00, -1.00, 573.6, 349.5)">S</text><text xml:space="preserve" font-family="GearedSlab-Regular,Geared Slab" font-size="130.0" fill="#FFC455" transform="matrix(1.00, 0.00, -0.00, -1.00, 628.5, 349.5)">M</text><text xml:space="preserve" font-family="GearedSlab-Regular,Geared Slab" font-size="130.0" fill="#FFC455" transform="matrix(1.00, 0.00, -0.00, -1.00, 713.4, 349.5)">E</text><text xml:space="preserve" font-family="GearedSlab-Regular,Geared Slab" font-size="130.0" fill="#8190FF" transform="matrix(1.00, 0.00, -0.00, -1.00, 764.9, 349.5)"> </text></g></svg>