<?xml version="1.0" encoding="UTF-8" standalone="no"?><svg xmlns="http://www.w3.org/2000/svg" xmlns:xlink="http://www.w3.org/1999/xlink" clip-rule="evenodd" stroke-miterlimit="10" viewBox="0 0 1024 768"><desc>SVG generated by Keynote</desc><defs></defs><g transform="matrix(1.00, 0.00, -0.00, -1.00, 0.0, 768.0)"><path d="M 0.0 768.0 L 1024.0 768.0 L 1024.0 0.0 L 0.0 0.0 Z M 0.0 768.0 " fill="#FEFFFF"></path><image xlink:href="../../7C36F94F-7711-4467-B448-6D90D33C2DDE/assets/D036E61CE43F70E9C98B66286F9E85A2.jpeg" width="1280.00" height="780.00" transform="matrix(0.83, 0.00, -0.00, -0.83, -16.6, 616.1)"></image><text xml:space="preserve" font-family="GearedSlab-Regular,Geared Slab" font-size="110.0" fill="#FF6160" transform="matrix(1.00, 0.00, -0.00, -1.00, 350.6, 629.0)">P</text><text xml:space="preserve" font-family="GearedSlab-Regular,Geared Slab" font-size="110.0" fill="#FF6160" transform="matrix(1.00, 0.00, -0.00, -1.00, 388.7, 629.0)">A</text><text xml:space="preserve" font-family="GearedSlab-Regular,Geared Slab" font-size="110.0" fill="#FF6160" transform="matrix(1.00, 0.00, -0.00, -1.00, 440.6, 629.0)">L</text><text xml:space="preserve" font-family="GearedSlab-Regular,Geared Slab" font-size="110.0" fill="#FF6160" transform="matrix(1.00, 0.00, -0.00, -1.00, 483.0, 629.0)">E</text><text xml:space="preserve" font-family="GearedSlab-Regular,Geared Slab" font-size="110.0" fill="#FF6160" transform="matrix(1.00, 0.00, -0.00, -1.00, 526.6, 629.0)">T</text><text xml:space="preserve" font-family="GearedSlab-Regular,Geared Slab" font-size="110.0" fill="#FF6160" transform="matrix(1.00, 0.00, -0.00, -1.00, 577.9, 629.0)">T</text><text xml:space="preserve" font-family="GearedSlab-Regular,Geared Slab" font-size="110.0" fill="#FF6160" transform="matrix(1.00, 0.00, -0.00, -1.00, 629.9, 629.0)">E</text></g></svg>