<?xml version="1.0" encoding="UTF-8" standalone="no"?><svg xmlns="http://www.w3.org/2000/svg" xmlns:xlink="http://www.w3.org/1999/xlink" clip-rule="evenodd" stroke-miterlimit="10" viewBox="0 0 1024 768"><desc>SVG generated by Keynote</desc><defs></defs><g transform="matrix(1.00, 0.00, -0.00, -1.00, 0.0, 768.0)"><path d="M 0.0 768.0 L 1024.0 768.0 L 1024.0 0.0 L 0.0 0.0 Z M 0.0 768.0 " fill="#FEFFFF"></path><g><clipPath id="clip0x7fa29cb18d20"><path d="M 10.4 675.5 L 1013.6 675.5 L 1013.6 92.5 L 10.4 92.5 Z M 10.4 675.5 "></path></clipPath><g clip-path="url(#clip0x7fa29cb18d20)"><g><clipPath id="clip0x7fa29cb194f0"><path d="M 10.4 92.5 L 1013.6 92.5 L 1013.6 675.5 L 10.4 675.5 Z M 10.4 92.5 "></path></clipPath><g clip-path="url(#clip0x7fa29cb194f0)"><path d="M 120.4 375.6 C 120.4 369.8 101.5 365.1 78.2 365.1 C 54.8 365.1 35.9 369.8 35.9 375.6 C 35.9 381.4 54.8 386.1 78.2 386.1 C 101.5 386.1 120.4 381.4 120.4 375.6 " fill="#5F73C3"></path><path d="M 234.0 374.7 C 234.0 369.4 215.3 365.1 192.2 365.1 C 169.2 365.1 150.4 369.4 150.4 374.7 C 150.4 380.1 169.2 384.4 192.2 384.4 C 215.3 384.4 234.0 380.1 234.0 374.7 " fill="#5F73C3"></path><path d="M 133.9 413.7 C 103.8 413.7 75.9 418.9 52.8 427.8 C 43.8 404.5 38.1 377.5 38.1 377.5 C 56.0 364.5 96.9 372.5 109.2 373.1 C 121.6 373.8 120.4 388.6 120.4 392.3 C 120.4 395.3 125.1 398.3 134.9 398.7 L 134.9 399.0 C 144.4 398.5 149.1 395.6 149.1 392.6 C 149.1 388.9 147.8 374.1 160.2 373.5 C 172.6 372.8 213.5 364.8 231.4 377.8 C 231.4 377.8 225.6 405.1 216.6 428.4 C 193.2 419.1 164.6 413.7 133.9 413.7 " fill="#7B91FF"></path><path d="M 206.0 451.6 L 179.1 495.9 L 134.5 496.1 L 134.5 495.8 L 83.6 495.6 L 61.0 445.3 L 61.3 446.7 C 58.1 441.3 55.2 434.8 52.6 427.9 C 75.8 419.1 103.7 414.0 133.7 414.0 C 164.6 414.0 193.2 419.4 216.7 428.6 C 213.7 436.5 210.3 443.8 206.6 449.6 C 205.7 451.0 205.7 451.6 206.0 451.6 " fill="#FEC43B"></path><path d="M 64.4 449.8 C 64.4 449.8 65.2 450.5 66.0 450.9 L 83.7 495.6 L 79.0 495.5 C -5.5 483.7 11.9 443.8 11.9 443.8 C 32.6 410.4 64.4 449.8 64.4 449.8 " fill="#FFDFD2"></path><path d="M 190.9 495.4 L 179.1 495.4 L 207.8 448.3 L 207.1 447.9 C 213.7 440.6 240.1 414.6 258.0 443.6 C 258.0 443.6 275.4 483.6 190.9 495.4 " fill="#FFDFD2"></path><path d="M 208.0 549.9 C 208.0 518.5 174.3 493.0 132.8 493.0 C 91.3 493.0 57.6 518.5 57.6 549.9 C 57.6 581.3 91.3 606.8 132.8 606.8 C 174.3 606.8 208.0 581.3 208.0 549.9 " fill="#FFDFD2"></path><path d="M 100.7 543.1 C 100.7 538.3 96.8 534.4 92.0 534.4 C 87.1 534.4 83.3 538.3 83.3 543.1 C 83.3 547.9 87.1 551.8 92.0 551.8 C 96.8 551.8 100.7 547.9 100.7 543.1 " fill="#000000"></path><path d="M 185.1 544.0 C 185.1 539.2 181.2 535.3 176.4 535.3 C 171.6 535.3 167.7 539.2 167.7 544.0 C 167.7 548.8 171.6 552.7 176.4 552.7 C 181.2 552.7 185.1 548.8 185.1 544.0 " fill="#000000"></path><path d="M 223.6 543.2 L 223.6 544.2 C 203.0 523.5 170.6 510.3 134.2 510.3 C 98.4 510.3 66.5 523.1 45.9 543.1 C 28.8 533.1 30.4 515.4 30.4 515.4 C 31.2 506.4 35.1 500.2 39.1 495.9 C 36.7 492.7 35.3 488.8 35.3 484.6 C 35.3 473.8 44.5 465.1 55.7 465.1 C 56.5 465.1 57.2 465.1 57.9 465.2 C 68.4 438.1 95.6 444.1 108.0 448.5 C 112.5 441.9 122.5 437.2 134.2 437.2 C 146.1 437.2 156.3 442.0 160.6 448.9 C 171.9 444.7 198.2 438.0 210.1 461.1 C 219.1 461.9 227.5 468.4 231.0 478.1 C 233.2 484.4 233.1 490.8 231.0 496.3 C 234.9 500.5 238.6 506.7 239.4 515.4 C 239.4 515.4 241.0 533.3 223.6 543.2 " fill="#FF665F"></path><path d="M 63.6 548.3 C 63.6 541.9 58.4 536.7 52.0 536.7 C 45.6 536.7 40.4 541.9 40.4 548.3 C 40.4 554.7 45.6 559.9 52.0 559.9 C 58.4 559.9 63.6 554.7 63.6 548.3 " fill="#FFDFD2"></path><path d="M 227.0 545.5 C 227.0 539.1 221.9 533.9 215.4 533.9 C 209.0 533.9 203.8 539.1 203.8 545.5 C 203.8 551.9 209.0 557.1 215.4 557.1 C 221.9 557.1 227.0 551.9 227.0 545.5 " fill="#FFDFD2"></path><path d="M 70.5 523.3 C 70.5 519.9 66.8 517.2 62.2 517.2 C 57.7 517.2 53.9 519.9 53.9 523.3 L 53.9 569.6 C 53.9 573.0 57.7 575.7 62.2 575.7 C 66.8 575.7 70.5 573.0 70.5 569.6 Z M 70.5 523.3 " fill="#FF665F"></path><path d="M 215.4 521.0 C 215.4 517.6 211.5 514.9 206.6 514.9 C 201.8 514.9 197.9 517.6 197.9 521.0 L 197.9 567.3 C 197.9 570.7 201.8 573.4 206.6 573.4 C 211.5 573.4 215.4 570.7 215.4 567.3 Z M 215.4 521.0 " fill="#FF665F"></path><path d="M 137.0 614.2 C 101.5 614.2 70.6 607.9 54.8 598.6 L 54.8 570.4 C 70.6 561.1 101.5 554.8 137.0 554.8 C 169.9 554.8 198.8 560.2 215.4 568.4 L 215.4 600.6 C 198.8 608.8 169.9 614.2 137.0 614.2 " fill="#FF665F"></path><path d="M 211.1 613.8 C 211.1 638.1 176.0 657.9 132.7 657.9 C 89.3 657.9 54.2 638.1 54.2 613.8 C 54.2 589.4 89.3 569.7 132.7 569.7 C 176.0 569.7 211.1 589.4 211.1 613.8 " fill="#FEC43B"></path><path d="M 68.1 638.8 C 68.1 638.8 49.5 621.7 48.6 601.2 C 47.7 580.8 72.8 594.7 72.8 594.7 Z M 68.1 638.8 " fill="#FEC43B"></path><path d="M 199.9 637.0 C 199.9 637.0 218.5 619.8 219.4 599.4 C 220.4 579.0 195.3 592.9 195.3 592.9 Z M 199.9 637.0 " fill="#FEC43B"></path><path d="M 149.0 658.7 C 149.0 649.5 141.2 642.0 131.5 642.0 C 121.9 642.0 114.1 649.5 114.1 658.7 C 114.1 668.0 121.9 675.4 131.5 675.4 C 141.2 675.4 149.0 668.0 149.0 658.7 " fill="#FBA700"></path><path d="M 226.4 580.4 C 226.4 574.2 221.0 569.2 214.3 569.2 L 54.7 569.2 C 48.0 569.2 42.6 574.2 42.6 580.4 L 42.6 590.6 C 42.6 596.7 48.0 601.7 54.7 601.7 L 214.3 601.7 C 221.0 601.7 226.4 596.7 226.4 590.6 Z M 226.4 580.4 " fill="#FBA700"></path><path d="M 190.1 522.2 C 185.3 519.6 174.1 519.9 159.9 530.0 C 146.4 539.6 136.5 528.5 135.5 527.3 C 135.0 528.0 124.9 540.0 111.0 530.1 C 96.9 520.0 85.6 519.7 80.8 522.3 C 76.0 525.0 78.0 520.9 78.0 520.9 C 80.0 511.6 91.3 504.1 91.3 504.1 C 108.4 495.8 133.6 503.2 135.4 503.7 L 135.4 503.7 C 135.4 503.7 161.9 495.4 179.7 504.0 C 179.7 504.0 190.9 511.5 192.9 520.8 C 192.9 520.8 194.9 524.9 190.1 522.2 " fill="#EB574B"></path><path d="M 40.9 433.0 C 40.9 433.0 39.7 433.2 38.5 434.7 C 37.2 436.5 36.2 439.0 37.7 441.3 C 40.5 445.6 37.4 457.3 27.8 455.2 C 18.3 453.0 32.5 436.7 35.1 436.2 C 36.2 436.0 36.3 434.7 37.0 433.6 C 37.9 432.1 36.8 432.3 36.8 432.3 Z M 40.9 433.0 " fill="#FCD1C2"></path><path d="M 223.2 543.5 L 223.2 543.7 C 222.7 543.2 222.2 542.7 221.7 542.3 C 222.2 542.7 222.7 543.1 223.2 543.5 " fill="#EB574B"></path><path d="M 138.4 440.9 C 126.7 440.9 116.7 445.6 112.2 452.2 C 99.7 447.8 72.5 441.9 62.0 468.9 C 61.3 468.8 60.6 468.8 59.9 468.8 C 48.6 468.8 39.5 477.5 39.5 488.3 C 39.5 492.5 40.9 496.4 43.3 499.6 C 39.3 503.9 35.4 510.2 34.6 519.1 C 34.6 519.1 33.5 530.8 42.4 540.6 C 28.5 530.4 29.9 514.9 29.9 514.9 C 30.8 506.0 34.6 499.7 38.7 495.5 C 36.3 492.3 34.8 488.3 34.8 484.1 C 34.8 473.3 44.0 464.6 55.3 464.6 C 56.0 464.6 56.7 464.6 57.4 464.7 C 67.9 437.7 95.1 443.6 107.6 448.0 C 112.0 441.4 122.1 436.7 133.7 436.7 C 144.6 436.7 154.0 440.8 158.9 446.7 C 153.7 443.1 146.4 440.9 138.4 440.9 " fill="#EB574B"></path><path d="M 214.3 464.8 C 213.6 463.4 212.8 462.2 212.0 461.0 C 217.1 462.0 221.8 464.8 225.4 469.0 C 222.1 466.6 218.2 465.2 214.3 464.8 " fill="#EB574B"></path><path d="M 164.8 452.6 C 163.8 451.0 162.5 449.5 160.9 448.2 C 171.1 444.5 192.2 439.4 205.0 453.8 C 191.8 444.5 173.7 449.3 164.8 452.6 " fill="#EB574B"></path><path d="M 120.4 103.1 C 120.4 97.2 101.5 92.5 78.2 92.5 C 54.8 92.5 35.9 97.2 35.9 103.1 C 35.9 108.9 54.8 113.6 78.2 113.6 C 101.5 113.6 120.4 108.9 120.4 103.1 " fill="#5F73C3"></path><path d="M 234.0 102.2 C 234.0 96.9 215.3 92.5 192.2 92.5 C 169.2 92.5 150.4 96.9 150.4 102.2 C 150.4 107.6 169.2 111.9 192.2 111.9 C 215.3 111.9 234.0 107.6 234.0 102.2 " fill="#5F73C3"></path><path d="M 133.9 141.2 C 103.8 141.2 75.9 146.3 52.8 155.2 C 43.8 132.0 38.1 104.9 38.1 104.9 C 56.0 91.9 96.9 100.0 109.2 100.6 C 121.6 101.2 120.4 116.1 120.4 119.8 C 120.4 122.8 125.1 125.7 134.9 126.2 L 134.9 126.5 C 144.4 125.9 149.1 123.0 149.1 120.1 C 149.1 116.4 147.8 101.5 160.2 100.9 C 172.6 100.3 213.5 92.3 231.4 105.3 C 231.4 105.3 225.6 132.6 216.6 155.8 C 193.2 146.6 164.6 141.2 133.9 141.2 " fill="#7B91FF"></path><path d="M 206.0 179.1 L 179.1 223.4 L 134.5 223.6 L 134.5 223.2 L 83.6 223.1 L 61.0 172.7 L 61.3 174.2 C 58.1 168.7 55.2 162.2 52.6 155.4 C 75.8 146.6 103.7 141.5 133.7 141.5 C 164.6 141.5 193.2 146.9 216.7 156.1 C 213.7 163.9 210.3 171.3 206.6 177.1 C 205.7 178.5 205.7 179.0 206.0 179.1 " fill="#FEC43B"></path><path d="M 64.4 177.3 C 64.4 177.3 65.2 177.9 66.0 178.4 L 83.7 223.0 L 79.0 223.0 C -5.5 211.2 11.9 171.3 11.9 171.3 C 32.6 137.8 64.4 177.3 64.4 177.3 " fill="#FFDFD2"></path><path d="M 190.9 222.9 L 179.1 222.9 L 207.8 175.8 L 207.1 175.4 C 213.7 168.0 240.1 142.1 258.0 171.1 C 258.0 171.1 275.4 211.0 190.9 222.9 " fill="#FFDFD2"></path><path d="M 208.0 277.4 C 208.0 245.9 174.3 220.4 132.8 220.4 C 91.3 220.4 57.6 245.9 57.6 277.4 C 57.6 308.8 91.3 334.3 132.8 334.3 C 174.3 334.3 208.0 308.8 208.0 277.4 " fill="#FFDFD2"></path><path d="M 100.7 270.6 C 100.7 265.8 96.8 261.9 92.0 261.9 C 87.1 261.9 83.3 265.8 83.3 270.6 C 83.3 275.4 87.1 279.3 92.0 279.3 C 96.8 279.3 100.7 275.4 100.7 270.6 " fill="#000000"></path><path d="M 185.1 271.5 C 185.1 266.7 181.2 262.8 176.4 262.8 C 171.6 262.8 167.7 266.7 167.7 271.5 C 167.7 276.3 171.6 280.2 176.4 280.2 C 181.2 280.2 185.1 276.3 185.1 271.5 " fill="#000000"></path><path d="M 223.6 270.7 L 223.6 271.6 C 203.0 251.0 170.6 237.7 134.2 237.7 C 98.4 237.7 66.5 250.5 45.9 270.5 C 28.8 260.5 30.4 242.8 30.4 242.8 C 31.2 233.9 35.1 227.6 39.1 223.4 C 36.7 220.2 35.3 216.3 35.3 212.0 C 35.3 201.3 44.5 192.5 55.7 192.5 C 56.5 192.5 57.2 192.6 57.9 192.6 C 68.4 165.6 95.6 171.5 108.0 176.0 C 112.5 169.3 122.5 164.7 134.2 164.7 C 146.1 164.7 156.3 169.5 160.6 176.4 C 171.9 172.2 198.2 165.5 210.1 188.6 C 219.1 189.4 227.5 195.8 231.0 205.6 C 233.2 211.8 233.1 218.3 231.0 223.8 C 234.9 228.0 238.6 234.2 239.4 242.8 C 239.4 242.8 241.0 260.7 223.6 270.7 " fill="#FF665F"></path><path d="M 63.6 275.8 C 63.6 269.4 58.4 264.2 52.0 264.2 C 45.6 264.2 40.4 269.4 40.4 275.8 C 40.4 282.2 45.6 287.4 52.0 287.4 C 58.4 287.4 63.6 282.2 63.6 275.8 " fill="#FFDFD2"></path><path d="M 227.0 273.0 C 227.0 266.6 221.9 261.4 215.4 261.4 C 209.0 261.4 203.8 266.6 203.8 273.0 C 203.8 279.4 209.0 284.6 215.4 284.6 C 221.9 284.6 227.0 279.4 227.0 273.0 " fill="#FFDFD2"></path><path d="M 70.5 250.8 C 70.5 247.4 66.8 244.7 62.2 244.7 C 57.7 244.7 53.9 247.4 53.9 250.8 L 53.9 297.1 C 53.9 300.5 57.7 303.2 62.2 303.2 C 66.8 303.2 70.5 300.5 70.5 297.1 Z M 70.5 250.8 " fill="#FF665F"></path><path d="M 215.4 248.5 C 215.4 245.1 211.5 242.4 206.6 242.4 C 201.8 242.4 197.9 245.1 197.9 248.5 L 197.9 294.8 C 197.9 298.1 201.8 300.9 206.6 300.9 C 211.5 300.9 215.4 298.1 215.4 294.8 Z M 215.4 248.5 " fill="#FF665F"></path><path d="M 137.0 341.7 C 101.5 341.7 70.6 335.4 54.8 326.1 L 54.8 297.9 C 70.6 288.6 101.5 282.3 137.0 282.3 C 169.9 282.3 198.8 287.7 215.4 295.9 L 215.4 328.1 C 198.8 336.3 169.9 341.7 137.0 341.7 " fill="#FF665F"></path><path d="M 211.1 341.3 C 211.1 365.6 176.0 385.4 132.7 385.4 C 89.3 385.4 54.2 365.6 54.2 341.3 C 54.2 316.9 89.3 297.1 132.7 297.1 C 176.0 297.1 211.1 316.9 211.1 341.3 " fill="#FEC43B"></path><path d="M 68.1 366.3 C 68.1 366.3 49.5 349.1 48.6 328.7 C 47.7 308.3 72.8 322.2 72.8 322.2 Z M 68.1 366.3 " fill="#FEC43B"></path><path d="M 199.9 364.5 C 199.9 364.5 218.5 347.3 219.4 326.9 C 220.4 306.4 195.3 320.4 195.3 320.4 Z M 199.9 364.5 " fill="#FEC43B"></path><path d="M 149.0 386.2 C 149.0 377.0 141.2 369.5 131.5 369.5 C 121.9 369.5 114.1 377.0 114.1 386.2 C 114.1 395.4 121.9 402.9 131.5 402.9 C 141.2 402.9 149.0 395.4 149.0 386.2 " fill="#FBA700"></path><path d="M 226.4 307.8 C 226.4 301.7 221.0 296.7 214.3 296.7 L 54.7 296.7 C 48.0 296.7 42.6 301.7 42.6 307.8 L 42.6 318.0 C 42.6 324.2 48.0 329.2 54.7 329.2 L 214.3 329.2 C 221.0 329.2 226.4 324.2 226.4 318.0 Z M 226.4 307.8 " fill="#FBA700"></path><path d="M 190.1 249.7 C 185.3 247.1 174.1 247.4 159.9 257.5 C 146.4 267.1 136.5 256.0 135.5 254.8 C 135.0 255.4 124.9 267.4 111.0 257.6 C 96.9 247.4 85.6 247.1 80.8 249.8 C 76.0 252.4 78.0 248.4 78.0 248.4 C 80.0 239.0 91.3 231.5 91.3 231.5 C 108.4 223.3 133.6 230.7 135.4 231.2 L 135.4 231.2 C 135.4 231.2 161.9 222.9 179.7 231.5 C 179.7 231.5 190.9 238.9 192.9 248.3 C 192.9 248.3 194.9 252.4 190.1 249.7 " fill="#EB574B"></path><path d="M 40.9 160.5 C 40.9 160.5 39.7 160.6 38.5 162.2 C 37.2 164.0 36.2 166.5 37.7 168.8 C 40.5 173.1 37.4 184.8 27.8 182.6 C 18.3 180.5 32.5 164.2 35.1 163.7 C 36.2 163.4 36.3 162.2 37.0 161.1 C 37.9 159.6 36.8 159.7 36.8 159.7 Z M 40.9 160.5 " fill="#FCD1C2"></path><path d="M 223.2 271.0 L 223.2 271.2 C 222.7 270.7 222.2 270.2 221.7 269.7 C 222.2 270.2 222.7 270.6 223.2 271.0 " fill="#EB574B"></path><path d="M 138.4 168.4 C 126.7 168.4 116.7 173.0 112.2 179.7 C 99.7 175.3 72.5 169.3 62.0 196.4 C 61.3 196.3 60.6 196.3 59.9 196.3 C 48.6 196.3 39.5 205.0 39.5 215.7 C 39.5 220.0 40.9 223.9 43.3 227.1 C 39.3 231.3 35.4 237.6 34.6 246.6 C 34.6 246.6 33.5 258.3 42.4 268.1 C 28.5 257.9 29.9 242.4 29.9 242.4 C 30.8 233.5 34.6 227.2 38.7 222.9 C 36.3 219.7 34.8 215.8 34.8 211.6 C 34.8 200.8 44.0 192.1 55.3 192.1 C 56.0 192.1 56.7 192.1 57.4 192.2 C 67.9 165.2 95.1 171.1 107.6 175.5 C 112.0 168.9 122.1 164.2 133.7 164.2 C 144.6 164.2 154.0 168.2 158.9 174.1 C 153.7 170.6 146.4 168.4 138.4 168.4 " fill="#EB574B"></path><path d="M 214.3 192.3 C 213.6 190.9 212.8 189.7 212.0 188.5 C 217.1 189.5 221.8 192.3 225.4 196.4 C 222.1 194.1 218.2 192.7 214.3 192.3 " fill="#EB574B"></path><path d="M 164.8 180.1 C 163.8 178.5 162.5 177.0 160.9 175.7 C 171.1 172.0 192.2 166.9 205.0 181.3 C 191.8 172.0 173.7 176.8 164.8 180.1 " fill="#EB574B"></path><path d="M 874.5 375.6 C 874.5 369.8 855.6 365.1 832.2 365.1 C 808.9 365.1 790.0 369.8 790.0 375.6 C 790.0 381.4 808.9 386.1 832.2 386.1 C 855.6 386.1 874.5 381.4 874.5 375.6 " fill="#5F73C3"></path><path d="M 988.1 374.8 C 988.1 369.4 969.4 365.1 946.3 365.1 C 923.2 365.1 904.5 369.4 904.5 374.8 C 904.5 380.1 923.2 384.4 946.3 384.4 C 969.4 384.4 988.1 380.1 988.1 374.8 " fill="#5F73C3"></path><path d="M 888.0 413.7 C 857.9 413.7 830.0 418.9 806.8 427.8 C 797.8 404.6 792.1 377.5 792.1 377.5 C 810.1 364.5 850.9 372.5 863.3 373.2 C 875.7 373.8 874.5 388.6 874.5 392.4 C 874.5 395.3 879.2 398.3 889.0 398.7 L 889.0 399.0 C 898.5 398.5 903.1 395.6 903.1 392.7 C 903.1 389.0 901.9 374.1 914.3 373.5 C 926.7 372.9 967.5 364.8 985.5 377.8 C 985.5 377.8 979.7 405.1 970.7 428.4 C 947.2 419.1 918.7 413.7 888.0 413.7 " fill="#7B91FF"></path><path d="M 960.1 451.6 L 933.1 495.9 L 888.6 496.1 L 888.6 495.8 L 837.7 495.6 L 815.1 445.3 L 815.3 446.7 C 812.2 441.3 809.3 434.8 806.7 428.0 C 829.8 419.2 857.7 414.0 887.8 414.0 C 918.7 414.0 947.3 419.4 970.8 428.7 C 967.8 436.5 964.4 443.8 960.7 449.6 C 959.8 451.1 959.8 451.6 960.1 451.6 " fill="#FEC43B"></path><path d="M 818.4 449.8 C 818.4 449.8 819.3 450.5 820.1 450.9 L 837.8 495.6 L 833.1 495.6 C 748.6 483.7 766.0 443.8 766.0 443.8 C 786.6 410.4 818.4 449.8 818.4 449.8 " fill="#FFDFD2"></path><path d="M 945.0 495.4 L 933.2 495.5 L 961.9 448.3 L 961.2 447.9 C 967.8 440.6 994.1 414.6 1012.1 443.7 C 1012.1 443.7 1029.5 483.6 945.0 495.4 " fill="#FFDFD2"></path><path d="M 962.1 549.9 C 962.1 518.5 928.4 493.0 886.9 493.0 C 845.3 493.0 811.7 518.5 811.7 549.9 C 811.7 581.4 845.3 606.8 886.9 606.8 C 928.4 606.8 962.1 581.4 962.1 549.9 " fill="#FFDFD2"></path><path d="M 854.7 543.1 C 854.7 538.3 850.8 534.4 846.0 534.4 C 841.2 534.4 837.3 538.3 837.3 543.1 C 837.3 547.9 841.2 551.8 846.0 551.8 C 850.8 551.8 854.7 547.9 854.7 543.1 " fill="#000000"></path><path d="M 939.2 544.0 C 939.2 539.2 935.3 535.3 930.5 535.3 C 925.7 535.3 921.8 539.2 921.8 544.0 C 921.8 548.9 925.7 552.7 930.5 552.7 C 935.3 552.7 939.2 548.9 939.2 544.0 " fill="#000000"></path><path d="M 977.7 543.3 L 977.7 544.2 C 957.1 523.6 924.7 510.3 888.3 510.3 C 852.5 510.3 820.6 523.1 799.9 543.1 C 782.8 533.1 784.5 515.4 784.5 515.4 C 785.3 506.5 789.2 500.2 793.2 495.9 C 790.8 492.7 789.4 488.8 789.4 484.6 C 789.4 473.8 798.5 465.1 809.8 465.1 C 810.5 465.1 811.2 465.1 811.9 465.2 C 822.4 438.2 849.6 444.1 862.1 448.5 C 866.6 441.9 876.6 437.2 888.3 437.2 C 900.2 437.2 910.4 442.1 914.7 448.9 C 926.0 444.7 952.2 438.1 964.2 461.1 C 973.2 461.9 981.6 468.4 985.1 478.2 C 987.3 484.4 987.1 490.8 985.0 496.3 C 989.0 500.5 992.6 506.7 993.5 515.4 C 993.5 515.4 995.1 533.3 977.7 543.3 " fill="#FF665F"></path><path d="M 817.7 548.3 C 817.7 541.9 812.5 536.7 806.1 536.7 C 799.7 536.7 794.5 541.9 794.5 548.3 C 794.5 554.8 799.7 560.0 806.1 560.0 C 812.5 560.0 817.7 554.8 817.7 548.3 " fill="#FFDFD2"></path><path d="M 981.1 545.6 C 981.1 539.1 975.9 534.0 969.5 534.0 C 963.1 534.0 957.9 539.1 957.9 545.6 C 957.9 552.0 963.1 557.2 969.5 557.2 C 975.9 557.2 981.1 552.0 981.1 545.6 " fill="#FFDFD2"></path><path d="M 824.6 523.3 C 824.6 520.0 820.9 517.2 816.3 517.2 C 811.7 517.2 808.0 520.0 808.0 523.3 L 808.0 569.6 C 808.0 573.0 811.7 575.7 816.3 575.7 C 820.9 575.7 824.6 573.0 824.6 569.6 Z M 824.6 523.3 " fill="#FF665F"></path><path d="M 969.5 521.0 C 969.5 517.6 965.5 514.9 960.7 514.9 C 955.9 514.9 951.9 517.6 951.9 521.0 L 951.9 567.3 C 951.9 570.7 955.9 573.4 960.7 573.4 C 965.5 573.4 969.5 570.7 969.5 567.3 Z M 969.5 521.0 " fill="#FF665F"></path><path d="M 891.1 614.3 C 855.5 614.3 824.6 607.9 808.9 598.6 L 808.9 570.5 C 824.6 561.2 855.5 554.8 891.1 554.8 C 924.0 554.8 952.9 560.3 969.5 568.5 L 969.5 600.6 C 952.9 608.8 924.0 614.3 891.1 614.3 " fill="#FF665F"></path><path d="M 965.2 613.8 C 965.2 638.2 930.1 657.9 886.7 657.9 C 843.4 657.9 808.3 638.2 808.3 613.8 C 808.3 589.4 843.4 569.7 886.7 569.7 C 930.1 569.7 965.2 589.4 965.2 613.8 " fill="#FEC43B"></path><path d="M 822.2 638.9 C 822.2 638.9 803.6 621.7 802.7 601.3 C 801.8 580.8 826.8 594.8 826.8 594.8 Z M 822.2 638.9 " fill="#FEC43B"></path><path d="M 954.0 637.0 C 954.0 637.0 972.6 619.8 973.5 599.4 C 974.4 579.0 949.4 592.9 949.4 592.9 Z M 954.0 637.0 " fill="#FEC43B"></path><path d="M 903.0 658.8 C 903.0 649.5 895.2 642.0 885.6 642.0 C 876.0 642.0 868.2 649.5 868.2 658.8 C 868.2 668.0 876.0 675.5 885.6 675.5 C 895.2 675.5 903.0 668.0 903.0 658.8 " fill="#FBA700"></path><path d="M 980.5 580.4 C 980.5 574.2 975.1 569.2 968.4 569.2 L 808.8 569.2 C 802.1 569.2 796.7 574.2 796.7 580.4 L 796.7 590.6 C 796.7 596.7 802.1 601.7 808.8 601.7 L 968.4 601.7 C 975.1 601.7 980.5 596.7 980.5 590.6 Z M 980.5 580.4 " fill="#FBA700"></path><path d="M 944.2 522.3 C 939.3 519.6 928.1 519.9 913.9 530.0 C 900.5 539.6 890.6 528.5 889.6 527.3 C 889.0 528.0 878.9 540.0 865.1 530.1 C 850.9 520.0 839.7 519.7 834.9 522.3 C 830.1 525.0 832.1 520.9 832.1 520.9 C 834.1 511.6 845.3 504.1 845.3 504.1 C 862.4 495.8 887.6 503.2 889.5 503.8 L 889.5 503.7 C 889.5 503.7 916.0 495.4 933.7 504.0 C 933.7 504.0 944.9 511.5 947.0 520.9 C 947.0 520.9 949.0 524.9 944.2 522.3 " fill="#EB574B"></path><path d="M 795.0 433.1 C 795.0 433.1 793.7 433.2 792.6 434.8 C 791.3 436.6 790.3 439.0 791.8 441.3 C 794.6 445.6 791.5 457.3 781.9 455.2 C 772.3 453.0 786.6 436.8 789.1 436.2 C 790.2 436.0 790.4 434.7 791.1 433.6 C 792.0 432.2 790.9 432.3 790.9 432.3 Z M 795.0 433.1 " fill="#FCD1C2"></path><path d="M 977.2 543.6 L 977.2 543.7 C 976.8 543.2 976.3 542.8 975.8 542.3 C 976.3 542.7 976.8 543.1 977.2 543.6 " fill="#EB574B"></path><path d="M 892.4 440.9 C 880.8 440.9 870.8 445.6 866.3 452.2 C 853.8 447.8 826.6 441.9 816.1 468.9 C 815.4 468.8 814.7 468.8 814.0 468.8 C 802.7 468.8 793.6 477.5 793.6 488.3 C 793.6 492.5 795.0 496.5 797.4 499.7 C 793.4 503.9 789.5 510.2 788.6 519.1 C 788.6 519.1 787.6 530.9 796.4 540.6 C 782.6 530.4 784.0 514.9 784.0 514.9 C 784.8 506.0 788.7 499.7 792.7 495.5 C 790.3 492.3 788.9 488.4 788.9 484.1 C 788.9 473.4 798.1 464.6 809.3 464.6 C 810.1 464.6 810.8 464.7 811.5 464.7 C 822.0 437.7 849.2 443.6 861.7 448.1 C 866.1 441.4 876.1 436.8 887.8 436.8 C 898.6 436.8 908.1 440.8 912.9 446.7 C 907.7 443.2 900.5 440.9 892.4 440.9 " fill="#EB574B"></path><path d="M 968.4 464.9 C 967.6 463.5 966.9 462.2 966.1 461.0 C 971.1 462.0 975.9 464.8 979.5 469.0 C 976.1 466.7 972.3 465.2 968.4 464.9 " fill="#EB574B"></path><path d="M 918.9 452.6 C 917.9 451.0 916.5 449.6 914.9 448.2 C 925.2 444.5 946.2 439.5 959.1 453.9 C 945.9 444.5 927.8 449.3 918.9 452.6 " fill="#EB574B"></path><path d="M 874.5 103.1 C 874.5 97.3 855.6 92.6 832.2 92.6 C 808.9 92.6 790.0 97.3 790.0 103.1 C 790.0 108.9 808.9 113.6 832.2 113.6 C 855.6 113.6 874.5 108.9 874.5 103.1 " fill="#5F73C3"></path><path d="M 988.1 102.2 C 988.1 96.9 969.4 92.6 946.3 92.6 C 923.2 92.6 904.5 96.9 904.5 102.2 C 904.5 107.6 923.2 111.9 946.3 111.9 C 969.4 111.9 988.1 107.6 988.1 102.2 " fill="#5F73C3"></path><path d="M 888.0 141.2 C 857.9 141.2 830.0 146.4 806.8 155.3 C 797.8 132.0 792.1 105.0 792.1 105.0 C 810.1 92.0 850.9 100.0 863.3 100.6 C 875.7 101.3 874.5 116.1 874.5 119.8 C 874.5 122.8 879.2 125.8 889.0 126.2 L 889.0 126.5 C 898.5 126.0 903.1 123.1 903.1 120.1 C 903.1 116.4 901.9 101.6 914.3 100.9 C 926.7 100.3 967.5 92.3 985.5 105.3 C 985.5 105.3 979.7 132.6 970.7 155.9 C 947.2 146.6 918.7 141.2 888.0 141.2 " fill="#7B91FF"></path><path d="M 960.1 179.1 L 933.1 223.4 L 888.6 223.6 L 888.6 223.3 L 837.7 223.1 L 815.1 172.8 L 815.3 174.2 C 812.2 168.8 809.3 162.3 806.7 155.4 C 829.8 146.6 857.7 141.5 887.8 141.5 C 918.7 141.5 947.3 146.9 970.8 156.1 C 967.8 164.0 964.4 171.3 960.7 177.1 C 959.8 178.5 959.8 179.1 960.1 179.1 " fill="#FEC43B"></path><path d="M 818.4 177.3 C 818.4 177.3 819.3 178.0 820.1 178.4 L 837.8 223.1 L 833.1 223.0 C 748.6 211.2 766.0 171.3 766.0 171.3 C 786.6 137.9 818.4 177.3 818.4 177.3 " fill="#FFDFD2"></path><path d="M 945.0 222.9 L 933.2 222.9 L 961.9 175.8 L 961.2 175.4 C 967.8 168.1 994.1 142.1 1012.1 171.1 C 1012.1 171.1 1029.5 211.1 945.0 222.9 " fill="#FFDFD2"></path><path d="M 962.1 277.4 C 962.1 245.9 928.4 220.5 886.9 220.5 C 845.3 220.5 811.7 245.9 811.7 277.4 C 811.7 308.8 845.3 334.3 886.9 334.3 C 928.4 334.3 962.1 308.8 962.1 277.4 " fill="#FFDFD2"></path><path d="M 854.7 270.6 C 854.7 265.8 850.8 261.9 846.0 261.9 C 841.2 261.9 837.3 265.8 837.3 270.6 C 837.3 275.4 841.2 279.3 846.0 279.3 C 850.8 279.3 854.7 275.4 854.7 270.6 " fill="#000000"></path><path d="M 939.2 271.5 C 939.2 266.7 935.3 262.8 930.5 262.8 C 925.7 262.8 921.8 266.7 921.8 271.5 C 921.8 276.3 925.7 280.2 930.5 280.2 C 935.3 280.2 939.2 276.3 939.2 271.5 " fill="#000000"></path><path d="M 977.7 270.7 L 977.7 271.7 C 957.1 251.0 924.7 237.7 888.3 237.7 C 852.5 237.7 820.6 250.6 799.9 270.6 C 782.8 260.6 784.5 242.9 784.5 242.9 C 785.3 233.9 789.2 227.7 793.2 223.4 C 790.8 220.2 789.4 216.3 789.4 212.1 C 789.4 201.3 798.5 192.6 809.8 192.6 C 810.5 192.6 811.2 192.6 811.9 192.7 C 822.4 165.6 849.6 171.6 862.1 176.0 C 866.6 169.3 876.6 164.7 888.3 164.7 C 900.2 164.7 910.4 169.5 914.7 176.4 C 926.0 172.2 952.2 165.5 964.2 188.6 C 973.2 189.4 981.6 195.9 985.1 205.6 C 987.3 211.9 987.1 218.3 985.0 223.8 C 989.0 228.0 992.6 234.2 993.5 242.9 C 993.5 242.9 995.1 260.7 977.7 270.7 " fill="#FF665F"></path><path d="M 817.7 275.8 C 817.7 269.4 812.5 264.2 806.1 264.2 C 799.7 264.2 794.5 269.4 794.5 275.8 C 794.5 282.2 799.7 287.4 806.1 287.4 C 812.5 287.4 817.7 282.2 817.7 275.8 " fill="#FFDFD2"></path><path d="M 981.1 273.0 C 981.1 266.6 975.9 261.4 969.5 261.4 C 963.1 261.4 957.9 266.6 957.9 273.0 C 957.9 279.4 963.1 284.6 969.5 284.6 C 975.9 284.6 981.1 279.4 981.1 273.0 " fill="#FFDFD2"></path><path d="M 824.6 250.8 C 824.6 247.4 820.9 244.7 816.3 244.7 C 811.7 244.7 808.0 247.4 808.0 250.8 L 808.0 297.1 C 808.0 300.5 811.7 303.2 816.3 303.2 C 820.9 303.2 824.6 300.5 824.6 297.1 Z M 824.6 250.8 " fill="#FF665F"></path><path d="M 969.5 248.5 C 969.5 245.1 965.5 242.4 960.7 242.4 C 955.9 242.4 951.9 245.1 951.9 248.5 L 951.9 294.8 C 951.9 298.2 955.9 300.9 960.7 300.9 C 965.5 300.9 969.5 298.2 969.5 294.8 Z M 969.5 248.5 " fill="#FF665F"></path><path d="M 891.1 341.7 C 855.5 341.7 824.6 335.4 808.9 326.1 L 808.9 297.9 C 824.6 288.6 855.5 282.3 891.1 282.3 C 924.0 282.3 952.9 287.7 969.5 295.9 L 969.5 328.1 C 952.9 336.3 924.0 341.7 891.1 341.7 " fill="#FF665F"></path><path d="M 965.2 341.3 C 965.2 365.6 930.1 385.4 886.7 385.4 C 843.4 385.4 808.3 365.6 808.3 341.3 C 808.3 316.9 843.4 297.2 886.7 297.2 C 930.1 297.2 965.2 316.9 965.2 341.3 " fill="#FEC43B"></path><path d="M 822.2 366.3 C 822.2 366.3 803.6 349.2 802.7 328.7 C 801.8 308.3 826.8 322.2 826.8 322.2 Z M 822.2 366.3 " fill="#FEC43B"></path><path d="M 954.0 364.5 C 954.0 364.5 972.6 347.3 973.5 326.9 C 974.4 306.5 949.4 320.4 949.4 320.4 Z M 954.0 364.5 " fill="#FEC43B"></path><path d="M 903.0 386.2 C 903.0 377.0 895.2 369.5 885.6 369.5 C 876.0 369.5 868.2 377.0 868.2 386.2 C 868.2 395.5 876.0 402.9 885.6 402.9 C 895.2 402.9 903.0 395.5 903.0 386.2 " fill="#FBA700"></path><path d="M 980.5 307.8 C 980.5 301.7 975.1 296.7 968.4 296.7 L 808.8 296.7 C 802.1 296.7 796.7 301.7 796.7 307.8 L 796.7 318.1 C 796.7 324.2 802.1 329.2 808.8 329.2 L 968.4 329.2 C 975.1 329.2 980.5 324.2 980.5 318.1 Z M 980.5 307.8 " fill="#FBA700"></path><path d="M 944.2 249.7 C 939.3 247.1 928.1 247.4 913.9 257.5 C 900.5 267.1 890.6 256.0 889.6 254.8 C 889.0 255.4 878.9 267.5 865.1 257.6 C 850.9 247.5 839.7 247.2 834.9 249.8 C 830.1 252.5 832.1 248.4 832.1 248.4 C 834.1 239.1 845.3 231.6 845.3 231.6 C 862.4 223.3 887.6 230.7 889.5 231.2 L 889.5 231.2 C 889.5 231.2 916.0 222.9 933.7 231.5 C 933.7 231.5 944.9 239.0 947.0 248.3 C 947.0 248.3 949.0 252.4 944.2 249.7 " fill="#EB574B"></path><path d="M 795.0 160.5 C 795.0 160.5 793.7 160.7 792.6 162.2 C 791.3 164.0 790.3 166.5 791.8 168.8 C 794.6 173.1 791.5 184.8 781.9 182.7 C 772.3 180.5 786.6 164.2 789.1 163.7 C 790.2 163.5 790.4 162.2 791.1 161.1 C 792.0 159.6 790.9 159.8 790.9 159.8 Z M 795.0 160.5 " fill="#FCD1C2"></path><path d="M 977.2 271.0 L 977.2 271.2 C 976.8 270.7 976.3 270.2 975.8 269.8 C 976.3 270.2 976.8 270.6 977.2 271.0 " fill="#EB574B"></path><path d="M 892.4 168.4 C 880.8 168.4 870.8 173.1 866.3 179.7 C 853.8 175.3 826.6 169.4 816.1 196.4 C 815.4 196.3 814.7 196.3 814.0 196.3 C 802.7 196.3 793.6 205.0 793.6 215.8 C 793.6 220.0 795.0 223.9 797.4 227.1 C 793.4 231.4 789.5 237.7 788.6 246.6 C 788.6 246.6 787.6 258.3 796.4 268.1 C 782.6 257.9 784.0 242.4 784.0 242.4 C 784.8 233.5 788.7 227.2 792.7 223.0 C 790.3 219.8 788.9 215.8 788.9 211.6 C 788.9 200.8 798.1 192.1 809.3 192.1 C 810.1 192.1 810.8 192.1 811.5 192.2 C 822.0 165.2 849.2 171.1 861.7 175.5 C 866.1 168.9 876.1 164.2 887.8 164.2 C 898.6 164.2 908.1 168.3 912.9 174.2 C 907.7 170.6 900.5 168.4 892.4 168.4 " fill="#EB574B"></path><path d="M 968.4 192.3 C 967.6 190.9 966.9 189.7 966.1 188.5 C 971.1 189.5 975.9 192.3 979.5 196.5 C 976.1 194.1 972.3 192.7 968.4 192.3 " fill="#EB574B"></path><path d="M 918.9 180.1 C 917.9 178.5 916.5 177.0 914.9 175.7 C 925.2 172.0 946.2 166.9 959.1 181.3 C 945.9 172.0 927.8 176.8 918.9 180.1 " fill="#EB574B"></path></g></g></g></g><text xml:space="preserve" font-family="GearedSlab-Regular,Geared Slab" font-size="130.0" fill="#8190FF" transform="matrix(1.00, 0.00, -0.00, -1.00, 317.3, 326.5)">H</text><text xml:space="preserve" font-family="GearedSlab-Regular,Geared Slab" font-size="130.0" fill="#8190FF" transform="matrix(1.00, 0.00, -0.00, -1.00, 378.6, 326.5)">I</text><text xml:space="preserve" font-family="GearedSlab-Regular,Geared Slab" font-size="130.0" fill="#8190FF" transform="matrix(1.00, 0.00, -0.00, -1.00, 405.2, 326.5)">S</text><text xml:space="preserve" font-family="GearedSlab-Regular,Geared Slab" font-size="130.0" fill="#FF6160" transform="matrix(1.00, 0.00, -0.00, -1.00, 460.1, 326.5)">T</text><text xml:space="preserve" font-family="GearedSlab-Regular,Geared Slab" font-size="130.0" fill="#FF6160" transform="matrix(1.00, 0.00, -0.00, -1.00, 519.5, 326.5)">O</text><text xml:space="preserve" font-family="GearedSlab-Regular,Geared Slab" font-size="130.0" fill="#FF6160" transform="matrix(1.00, 0.00, -0.00, -1.00, 572.6, 326.5)">I</text><text xml:space="preserve" font-family="GearedSlab-Regular,Geared Slab" font-size="130.0" fill="#8190FF" transform="matrix(1.00, 0.00, -0.00, -1.00, 599.3, 326.5)">R</text><text xml:space="preserve" font-family="GearedSlab-Regular,Geared Slab" font-size="130.0" fill="#8190FF" transform="matrix(1.00, 0.00, -0.00, -1.00, 655.2, 326.5)">E</text><text xml:space="preserve" font-family="GearedSlab-Regular,Geared Slab" font-size="130.0" fill="#8190FF" transform="matrix(1.00, 0.00, -0.00, -1.00, 706.7, 326.5)"> </text><text xml:space="preserve" font-family="GearedSlab-Regular,Geared Slab" font-size="130.0" fill="#8190FF" transform="matrix(1.00, 0.00, -0.00, -1.00, 739.2, 326.5)"> </text></g></svg>