<?xml version="1.0" encoding="UTF-8" standalone="no"?><svg xmlns="http://www.w3.org/2000/svg" xmlns:xlink="http://www.w3.org/1999/xlink" clip-rule="evenodd" stroke-miterlimit="10" viewBox="0 0 1024 768"><desc>SVG generated by Keynote</desc><defs></defs><g transform="matrix(1.00, 0.00, -0.00, -1.00, 0.0, 768.0)"><path d="M 0.0 768.0 L 1024.0 768.0 L 1024.0 0.0 L 0.0 0.0 Z M 0.0 768.0 " fill="#FEFFFF"></path><text xml:space="preserve" font-family="GearedSlab-Regular,Geared Slab" font-size="130.0" fill="#8190FF" transform="matrix(1.00, 0.00, -0.00, -1.00, 288.0, 428.5)">H</text><text xml:space="preserve" font-family="GearedSlab-Regular,Geared Slab" font-size="130.0" fill="#8190FF" transform="matrix(1.00, 0.00, -0.00, -1.00, 349.2, 428.5)">I</text><text xml:space="preserve" font-family="GearedSlab-Regular,Geared Slab" font-size="130.0" fill="#8190FF" transform="matrix(1.00, 0.00, -0.00, -1.00, 375.9, 428.5)">S</text><text xml:space="preserve" font-family="GearedSlab-Regular,Geared Slab" font-size="130.0" fill="#8190FF" transform="matrix(1.00, 0.00, -0.00, -1.00, 430.7, 428.5)">T</text><text xml:space="preserve" font-family="GearedSlab-Regular,Geared Slab" font-size="130.0" fill="#8190FF" transform="matrix(1.00, 0.00, -0.00, -1.00, 490.1, 428.5)">O</text><text xml:space="preserve" font-family="GearedSlab-Regular,Geared Slab" font-size="130.0" fill="#8190FF" transform="matrix(1.00, 0.00, -0.00, -1.00, 543.3, 428.5)">I</text><text xml:space="preserve" font-family="GearedSlab-Regular,Geared Slab" font-size="130.0" fill="#8190FF" transform="matrix(1.00, 0.00, -0.00, -1.00, 570.0, 428.5)">R</text><text xml:space="preserve" font-family="GearedSlab-Regular,Geared Slab" font-size="130.0" fill="#8190FF" transform="matrix(1.00, 0.00, -0.00, -1.00, 625.9, 428.5)">E</text><text xml:space="preserve" font-family="GearedSlab-Regular,Geared Slab" font-size="130.0" fill="#8190FF" transform="matrix(1.00, 0.00, -0.00, -1.00, 677.3, 428.5)"> </text><text xml:space="preserve" font-family="GearedSlab-Regular,Geared Slab" font-size="130.0" fill="#8190FF" transform="matrix(1.00, 0.00, -0.00, -1.00, 709.8, 428.5)"> </text><text xml:space="preserve" font-family="GearedSlab-Regular,Geared Slab" font-size="130.0" fill="#FF6047" transform="matrix(1.00, 0.00, -0.00, -1.00, 290.8, 298.0)">D</text><text xml:space="preserve" font-family="GearedSlab-Regular,Geared Slab" font-size="130.0" fill="#FF6047" transform="matrix(1.00, 0.00, -0.00, -1.00, 345.8, 298.0)">U</text><text xml:space="preserve" font-family="GearedSlab-Regular,Geared Slab" font-size="130.0" fill="#FCC447" transform="matrix(1.00, 0.00, -0.00, -1.00, 404.7, 298.0)"> </text><text xml:space="preserve" font-family="GearedSlab-Regular,Geared Slab" font-size="130.0" fill="#FCC447" transform="matrix(1.00, 0.00, -0.00, -1.00, 437.2, 298.0)">C</text><text xml:space="preserve" font-family="GearedSlab-Regular,Geared Slab" font-size="130.0" fill="#FCC447" transform="matrix(1.00, 0.00, -0.00, -1.00, 490.0, 298.0)">I</text><text xml:space="preserve" font-family="GearedSlab-Regular,Geared Slab" font-size="130.0" fill="#FCC447" transform="matrix(1.00, 0.00, -0.00, -1.00, 516.6, 298.0)">N</text><text xml:space="preserve" font-family="GearedSlab-Regular,Geared Slab" font-size="130.0" fill="#FCC447" transform="matrix(1.00, 0.00, -0.00, -1.00, 574.9, 298.0)">É</text><text xml:space="preserve" font-family="GearedSlab-Regular,Geared Slab" font-size="130.0" fill="#FCC447" transform="matrix(1.00, 0.00, -0.00, -1.00, 624.4, 298.0)">M</text><text xml:space="preserve" font-family="GearedSlab-Regular,Geared Slab" font-size="130.0" fill="#FCC447" transform="matrix(1.00, 0.00, -0.00, -1.00, 708.0, 298.0)">A</text></g></svg>